<?xml version="1.0" encoding="UTF-8"?>
<svg version="1.1" xmlns="http://www.w3.org/2000/svg" width="260" height="280">
<path d="M0 0 C85.8 0 171.6 0 260 0 C260 92.4 260 184.8 260 280 C174.2 280 88.4 280 0 280 C0 187.6 0 95.2 0 0 Z " fill="#FDFEFE" transform="translate(0,0)"/>
<path d="M0 0 C2.75321386 1.30697016 5.19633274 2.75582867 7.66015625 4.546875 C8.36132568 5.05468506 9.06249512 5.56249512 9.78491211 6.08569336 C10.53651611 6.63491455 11.28812012 7.18413574 12.0625 7.75 C12.85470947 8.32564697 13.64691895 8.90129395 14.46313477 9.49438477 C22.53417368 15.36805615 30.56781871 21.29265491 38.59570312 27.22509766 C41.0148571 29.01096782 43.43666019 30.79318282 45.859375 32.57421875 C53.28688235 38.03584156 60.70007534 43.51338097 68.0625 49.0625 C73.74167882 53.34170517 79.47782004 57.53467011 85.25 61.6875 C90.53920487 65.49604422 95.82746163 69.30465885 101.0625 73.1875 C102.00222656 73.88230469 102.94195312 74.57710938 103.91015625 75.29296875 C106 77 106 77 107 79 C93.14 79 79.28 79 65 79 C65 100.78 65 122.56 65 145 C22.43 145 -20.14 145 -64 145 C-64 123.55 -64 102.1 -64 80 C-76.54 80 -89.08 80 -102 80 C-96.37641723 74.37641723 -96.37641723 74.37641723 -93.20703125 71.94140625 C-92.50304199 71.39742188 -91.79905273 70.8534375 -91.07373047 70.29296875 C-90.32752441 69.72191406 -89.58131836 69.15085937 -88.8125 68.5625 C-87.20693359 67.32434539 -85.60146784 66.08606022 -83.99609375 64.84765625 C-83.17351074 64.2148877 -82.35092773 63.58211914 -81.50341797 62.93017578 C-76.71637469 59.23928791 -71.95580172 55.51427724 -67.19067383 51.79516602 C-66.49611084 51.25432373 -65.80154785 50.71348145 -65.0859375 50.15625 C-64.41530273 49.6195166 -63.74466797 49.0827832 -63.05371094 48.52978516 C-61 47 -61 47 -58.73535156 45.73193359 C-56.35451864 44.32026588 -54.73125063 43.1693697 -53 41 C-51.88944958 36.52321111 -51.92728809 32.21777956 -52 27.625 C-52 23.45875 -52 19.2925 -52 15 C-42.43 15 -32.86 15 -23 15 C-22.505 15.99 -22.505 15.99 -22 17 C-20.49759766 15.78763672 -20.49759766 15.78763672 -18.96484375 14.55078125 C-17.62247587 13.47125463 -16.28002343 12.39183316 -14.9375 11.3125 C-14.28072266 10.78205078 -13.62394531 10.25160156 -12.94726562 9.70507812 C-8.72813552 6.31730371 -4.43107479 3.10578584 0 0 Z " fill="#E4F6FB" transform="translate(129,51)"/>
<path d="M0 0 C1.051875 -0.01417969 2.10375 -0.02835937 3.1875 -0.04296875 C6 0.1875 6 0.1875 9 2.1875 C11.74518321 2.42937651 11.74518321 2.42937651 14.6875 2.3125 C17.3171875 2.250625 17.3171875 2.250625 20 2.1875 C20 5.8175 20 9.4475 20 13.1875 C18.53626953 13.13529297 18.53626953 13.13529297 17.04296875 13.08203125 C15.77066406 13.05496094 14.49835938 13.02789062 13.1875 13 C11.92292969 12.96519531 10.65835938 12.93039063 9.35546875 12.89453125 C6.10500859 12.88404124 6.10500859 12.88404124 4.32226562 14.42773438 C2.67376118 16.62168194 2.57973984 17.91125282 2.48828125 20.63671875 C2.45283203 21.48427734 2.41738281 22.33183594 2.38085938 23.20507812 C2.35830078 24.08615234 2.33574219 24.96722656 2.3125 25.875 C2.26125977 27.21401367 2.26125977 27.21401367 2.20898438 28.58007812 C2.12655533 30.78211121 2.06159953 32.98478582 2 35.1875 C6.29 35.1875 10.58 35.1875 15 35.1875 C15.37125 36.693125 15.7425 38.19875 16.125 39.75 C17.7245179 44.96133252 19.64613881 48.80315841 24 52.1875 C27.24873921 53.82400989 30.53612427 55.08535772 34 56.1875 C34 58.4975 34 60.8075 34 63.1875 C34.66 63.1875 35.32 63.1875 36 63.1875 C36 60.8775 36 58.5675 36 56.1875 C37.10408203 55.84138672 37.10408203 55.84138672 38.23046875 55.48828125 C45.46150917 53.07156629 49.8537015 50.94352238 53.75 44.125 C55.1400255 41.0713644 55.1400255 41.0713644 56 37.1875 C59.3 37.1875 62.6 37.1875 66 37.1875 C65.20358622 42.64862304 63.78470155 44.58695754 59.375 47.9375 C56.60157855 50.22936274 55.19652499 51.41244075 54.3046875 54.9296875 C54.20234002 60.3248619 54.95402445 64.61853667 58 69.1875 C58.66 69.8475 59.32 70.5075 60 71.1875 C60.99 71.1875 61.98 71.1875 63 71.1875 C63.33 67.8875 63.66 64.5875 64 61.1875 C68.37037037 59.00231481 68.37037037 59.00231481 71.125 59.8125 C73 61.1875 73 61.1875 73.609375 63.5703125 C73.65578125 64.47523438 73.7021875 65.38015625 73.75 66.3125 C73.80671875 67.22257812 73.8634375 68.13265625 73.921875 69.0703125 C73.94765625 69.76898438 73.9734375 70.46765625 74 71.1875 C77.09322404 70.8530974 78.58887768 70.6279882 80.75 68.3125 C83.40780122 63.79423792 83.66788169 59.29936367 83 54.1875 C82.11086316 52.30842541 82.11086316 52.30842541 80.9375 50.625 C78.37436297 46.07749882 78.89783555 44.18963098 80 39.1875 C80.495 38.1975 80.495 38.1975 81 37.1875 C84.96 37.1875 88.92 37.1875 93 37.1875 C93 55.0075 93 72.8275 93 91.1875 C74.19 91.1875 55.38 91.1875 36 91.1875 C36 85.5775 36 79.9675 36 74.1875 C35.34 74.1875 34.68 74.1875 34 74.1875 C34 79.7975 34 85.4075 34 91.1875 C15.52 91.1875 -2.96 91.1875 -22 91.1875 C-22 72.7075 -22 54.2275 -22 35.1875 C-16.72 35.1875 -11.44 35.1875 -6 35.1875 C-6.14012137 31.54136304 -6.28681398 27.89570211 -6.4375 24.25 C-6.47681641 23.20908203 -6.51613281 22.16816406 -6.55664062 21.09570312 C-6.59853516 20.10634766 -6.64042969 19.11699219 -6.68359375 18.09765625 C-6.72025146 17.18121338 -6.75690918 16.26477051 -6.79467773 15.32055664 C-6.77003864 13.2054272 -6.77003864 13.2054272 -8 12.1875 C-14.90967089 12.1875 -18.24089065 15.4531133 -23 20.1875 C-23.66 19.8575 -24.32 19.5275 -25 19.1875 C-18.78290609 9.43206004 -12.36070407 0.07573961 0 0 Z " fill="#07A8E6" transform="translate(94,98.8125)"/>
<path d="M0 0 C3.88166434 1.94083217 7.17032094 4.23057719 10.625 6.8125 C11.97607694 7.81315593 13.32766091 8.81312755 14.6796875 9.8125 C15.38706055 10.33585937 16.09443359 10.85921875 16.82324219 11.3984375 C20.44581046 14.06376364 24.0990055 16.68632503 27.75 19.3125 C34.0294539 23.83567546 40.27599919 28.40084331 46.5 33 C52.80782698 37.66086969 59.13849216 42.28764452 65.5 46.875 C66.24362793 47.41157227 66.98725586 47.94814453 67.75341797 48.50097656 C71.02174333 50.857808 74.29290832 53.21049767 77.5703125 55.5546875 C78.57835937 56.27914062 79.58640625 57.00359375 80.625 57.75 C81.48351562 58.36359375 82.34203125 58.9771875 83.2265625 59.609375 C83.81179687 60.06828125 84.39703125 60.5271875 85 61 C85 61.33 85 61.66 85 62 C75.43 62 65.86 62 56 62 C56 64.97 56 67.94 56 71 C49.565 71.495 49.565 71.495 43 72 C41.03162693 78.89900735 41.03162693 78.89900735 41 86 C42.02013556 87.72147875 43.04165721 89.44239541 44.09375 91.14453125 C45.78889957 94.61520387 45.486006 97.17270279 45 101 C42.01470588 106.66176471 42.01470588 106.66176471 38 108 C37.97421875 107.30132812 37.9484375 106.60265625 37.921875 105.8828125 C37.86515625 104.97273438 37.8084375 104.06265625 37.75 103.125 C37.70359375 102.22007812 37.6571875 101.31515625 37.609375 100.3828125 C37.23865912 97.86368984 37.23865912 97.86368984 35.11328125 96.66015625 C31.46262728 95.51974863 28.5231659 96.82561137 25 98 C25 101.3 25 104.6 25 108 C20.89106056 104.1017754 18.91608953 101.47389974 18.375 95.8125 C18.38028963 92.53822083 18.64584795 91.3817861 20.90234375 88.94921875 C22.52490844 87.63696627 24.15801678 86.3376564 25.80078125 85.05078125 C29.19713625 81.88366513 30.02413149 78.41754765 31 74 C31.495 72.515 31.495 72.515 32 71 C27.71 71 23.42 71 19 71 C18.67 69.659375 18.34 68.31875 18 66.9375 C16.11811663 61.32719041 12.89813808 58.19896098 8 55 C5.34123437 53.73155663 2.83145905 52.85955007 0 52 C0 51.67 0 51.34 0 51 C4.1693589 49.4116728 7.53507661 48.69557341 12 49 C12.66 49.33 13.32 49.66 14 50 C18.47673252 50.17218202 22.60598974 49.85736786 27 49 C27.33 50.65 27.66 52.3 28 54 C30.97 54 33.94 54 37 54 C37.34920888 48.12658117 37.34920888 48.12658117 36.0625 42.5 C33.16790522 40.39484016 30.47912756 40.3750315 26.9609375 40.17578125 C25 40 25 40 24 39 C23.95919217 37.00041636 23.95745644 34.99954746 24 33 C26.31 32.34 28.62 31.68 31 31 C31 30.01 31 29.02 31 28 C30.25234375 27.93941406 29.5046875 27.87882812 28.734375 27.81640625 C27.74953125 27.73261719 26.7646875 27.64882812 25.75 27.5625 C24.77546875 27.48128906 23.8009375 27.40007812 22.796875 27.31640625 C20 27 20 27 18 26.4375 C15.31462578 25.85007439 12.97573391 26.14545708 10.25 26.4375 C9.26515625 26.53933594 8.2803125 26.64117187 7.265625 26.74609375 C6.14414063 26.87177734 6.14414063 26.87177734 5 27 C4.67 28.32 4.34 29.64 4 31 C6.31 31.66 8.62 32.32 11 33 C11 34.65 11 36.3 11 38 C6.64425167 39.15299221 4.83348343 38.80558057 0 38 C0 25.46 0 12.92 0 0 Z " fill="#05A8E5" transform="translate(131,61)"/>
<path d="M0 0 C0.66 0 1.32 0 2 0 C2 13.86 2 27.72 2 42 C3.65 42 5.3 42 7 42 C7 41.34 7 40.68 7 40 C7.99 40 8.98 40 10 40 C10 40.66 10 41.32 10 42 C12.64 41.01 15.28 40.02 18 39 C18 37.35 18 35.7 18 34 C18.66 34 19.32 34 20 34 C20.33 32.68 20.66 31.36 21 30 C17.7 30.33 14.4 30.66 11 31 C11 30.34 11 29.68 11 29 C12.60397277 28.83147753 14.2081869 28.66525114 15.8125 28.5 C16.70582031 28.4071875 17.59914063 28.314375 18.51953125 28.21875 C22.15176732 27.89842682 25.57183128 28.12434611 29.1875 28.5 C30.08855469 28.5928125 30.98960937 28.685625 31.91796875 28.78125 C32.60503906 28.8534375 33.29210937 28.925625 34 29 C34 29.66 34 30.32 34 31 C30.7 30.67 27.4 30.34 24 30 C24.495 31.98 24.495 31.98 25 34 C25.66 34 26.32 34 27 34 C26.773125 34.598125 26.54625 35.19625 26.3125 35.8125 C25.73237126 38.03557028 25.73237126 38.03557028 27.19921875 39.60546875 C29.41966668 41.32499133 30.72129276 41.38885171 33.5 41.5 C36.18164309 41.60726572 37.57285471 41.69354918 39.76953125 43.26953125 C41.9460786 46.33051689 41.17958892 49.34835858 41 53 C38.69 53 36.38 53 34 53 C34 51.02 34 49.04 34 47 C33.41992188 47.144375 32.83984375 47.28875 32.2421875 47.4375 C27.77712555 48.49850482 23.62055133 49.4507855 19 49 C18.34 48.34 17.68 47.68 17 47 C14.34462628 46.43479997 11.70855287 46.26211802 9 46 C9 46.99 9 47.98 9 49 C8.34 49 7.68 49 7 49 C7 48.34 7 47.68 7 47 C5.35 47 3.7 47 2 47 C2 48.98 2 50.96 2 53 C0.824375 53.20625 -0.35125 53.4125 -1.5625 53.625 C-6.45760937 54.88126701 -9.77771077 57.10877984 -13 61 C-14.63429557 63.95523063 -15.79796871 66.82663741 -17 70 C-20.3 70 -23.6 70 -27 70 C-27.02690844 67.37493198 -27.04679404 64.75013827 -27.0625 62.125 C-27.07087891 61.37863281 -27.07925781 60.63226563 -27.08789062 59.86328125 C-27.11328125 54.2265625 -27.11328125 54.2265625 -26 52 C-24.00045254 51.95745644 -21.99958364 51.95919217 -20 52 C-19.67 52.33 -19.34 52.66 -19 53 C-17.12678052 53.16053815 -17.12678052 53.16053815 -15 53.125 C-14.278125 53.12757812 -13.55625 53.13015625 -12.8125 53.1328125 C-10.97910585 53.19695276 -10.97910585 53.19695276 -10 52 C-9.92741054 49.81360547 -9.91626217 47.62499611 -9.9375 45.4375 C-9.94652344 44.23996094 -9.95554687 43.04242188 -9.96484375 41.80859375 C-9.97644531 40.88175781 -9.98804687 39.95492187 -10 39 C-10.83144531 39.02320313 -11.66289063 39.04640625 -12.51953125 39.0703125 C-13.60621094 39.08835938 -14.69289063 39.10640625 -15.8125 39.125 C-16.89144531 39.14820313 -17.97039062 39.17140625 -19.08203125 39.1953125 C-22 39 -22 39 -25 37 C-32.91135583 36.14525553 -39.65502388 35.94991696 -46 41 C-50.79346391 45.12509421 -55.63570601 50.02769486 -58 56 C-57.69998729 58.1890707 -57.69998729 58.1890707 -57 60 C-54.04912279 58.66338822 -51.91682966 57.15046114 -49.5625 54.9375 C-46.7972487 52.49932143 -44.81901963 51.11232411 -41 51 C-40 52 -40 52 -39.88647461 53.76586914 C-39.89171143 54.51473389 -39.89694824 55.26359863 -39.90234375 56.03515625 C-39.90556641 56.84404297 -39.90878906 57.65292969 -39.91210938 58.48632812 C-39.92467773 59.7615332 -39.92467773 59.7615332 -39.9375 61.0625 C-39.94201172 61.91650391 -39.94652344 62.77050781 -39.95117188 63.65039062 C-39.96299627 65.76695663 -39.98093231 67.88348685 -40 70 C-44.62 70 -49.24 70 -54 70 C-54 67.69 -54 65.38 -54 63 C-62.25 63 -70.5 63 -79 63 C-75.35315578 59.35315578 -71.7931811 56.13362559 -67.75 53 C-67.15807861 52.5241748 -66.56615723 52.04834961 -65.95629883 51.55810547 C-62.5344235 48.83598839 -59.0833017 46.39572395 -55.33984375 44.1328125 C-47.08967497 39.22253757 -47.08967497 39.22253757 -42.15820312 31.37158203 C-41.18007872 25.20792898 -41.43269113 19.19360921 -42 13 C-37.05 13 -32.1 13 -27 13 C-27 15.64 -27 18.28 -27 21 C-20.59712379 16.22380045 -14.21452175 11.42253149 -7.875 6.5625 C-7.31917236 6.13791504 -6.76334473 5.71333008 -6.19067383 5.27587891 C-4.0102678 3.59989264 -1.94709238 1.94709238 0 0 Z " fill="#175C87" transform="translate(126,61)"/>
<path d="M0 0 C3.3 0 6.6 0 10 0 C9.20358622 5.46112304 7.78470155 7.39945754 3.375 10.75 C0.60157855 13.04186274 -0.80347501 14.22494075 -1.6953125 17.7421875 C-1.79765998 23.1373619 -1.04597555 27.43103667 2 32 C2.66 32.66 3.32 33.32 4 34 C4.99 34 5.98 34 7 34 C7.33 30.7 7.66 27.4 8 24 C12.37037037 21.81481481 12.37037037 21.81481481 15.125 22.625 C17 24 17 24 17.609375 26.3828125 C17.65578125 27.28773438 17.7021875 28.19265625 17.75 29.125 C17.80671875 30.03507812 17.8634375 30.94515625 17.921875 31.8828125 C17.96054688 32.93082031 17.96054688 32.93082031 18 34 C21.09322404 33.6655974 22.58887768 33.4404882 24.75 31.125 C27.40780122 26.60673792 27.66788169 22.11186367 27 17 C26.11086316 15.12092541 26.11086316 15.12092541 24.9375 13.4375 C22.37436297 8.88999882 22.89783555 7.00213098 24 2 C24.33 1.34 24.66 0.68 25 0 C28.96 0 32.92 0 37 0 C37 17.82 37 35.64 37 54 C18.19 54 -0.62 54 -20 54 C-20 47.73 -20 41.46 -20 35 C-28.84189872 36.27160482 -28.84189872 36.27160482 -34 41 C-34 34.73 -34 28.46 -34 22 C-31.03 23.98 -31.03 23.98 -28 26 C-25.73584146 26.6676801 -25.73584146 26.6676801 -23.625 26.75 C-22.42875 26.8325 -21.2325 26.915 -20 27 C-20 24.36 -20 21.72 -20 19 C-19.26394531 18.76925781 -18.52789062 18.53851563 -17.76953125 18.30078125 C-10.53849083 15.88406629 -6.1462985 13.75602238 -2.25 6.9375 C-0.8599745 3.8838644 -0.8599745 3.8838644 0 0 Z " fill="#185D88" transform="translate(150,136)"/>
<path d="M0 0 C2.75321386 1.30697016 5.19633274 2.75582867 7.66015625 4.546875 C8.36132568 5.05468506 9.06249512 5.56249512 9.78491211 6.08569336 C10.53651611 6.63491455 11.28812012 7.18413574 12.0625 7.75 C12.85470947 8.32564697 13.64691895 8.90129395 14.46313477 9.49438477 C22.53417368 15.36805615 30.56781871 21.29265491 38.59570312 27.22509766 C41.0148571 29.01096782 43.43666019 30.79318282 45.859375 32.57421875 C53.28688235 38.03584156 60.70007534 43.51338097 68.0625 49.0625 C73.74167882 53.34170517 79.47782004 57.53467011 85.25 61.6875 C90.53920487 65.49604422 95.82746163 69.30465885 101.0625 73.1875 C102.00222656 73.88230469 102.94195312 74.57710938 103.91015625 75.29296875 C106 77 106 77 107 79 C93.14 79 79.28 79 65 79 C65 100.78 65 122.56 65 145 C22.43 145 -20.14 145 -64 145 C-64 123.55 -64 102.1 -64 80 C-76.54 80 -89.08 80 -102 80 C-96.37641723 74.37641723 -96.37641723 74.37641723 -93.20703125 71.94140625 C-92.50304199 71.39742188 -91.79905273 70.8534375 -91.07373047 70.29296875 C-90.32752441 69.72191406 -89.58131836 69.15085937 -88.8125 68.5625 C-87.20693359 67.32434539 -85.60146784 66.08606022 -83.99609375 64.84765625 C-83.17351074 64.2148877 -82.35092773 63.58211914 -81.50341797 62.93017578 C-76.71637469 59.23928791 -71.95580172 55.51427724 -67.19067383 51.79516602 C-66.49611084 51.25432373 -65.80154785 50.71348145 -65.0859375 50.15625 C-64.41530273 49.6195166 -63.74466797 49.0827832 -63.05371094 48.52978516 C-61 47 -61 47 -58.73535156 45.73193359 C-56.35451864 44.32026588 -54.73125063 43.1693697 -53 41 C-51.88944958 36.52321111 -51.92728809 32.21777956 -52 27.625 C-52 23.45875 -52 19.2925 -52 15 C-42.43 15 -32.86 15 -23 15 C-22.505 15.99 -22.505 15.99 -22 17 C-20.49759766 15.78763672 -20.49759766 15.78763672 -18.96484375 14.55078125 C-17.62247587 13.47125463 -16.28002343 12.39183316 -14.9375 11.3125 C-14.28072266 10.78205078 -13.62394531 10.25160156 -12.94726562 9.70507812 C-8.72813552 6.31730371 -4.43107479 3.10578584 0 0 Z M-6.3125 7.9375 C-12.79085681 13.07605678 -19.3588075 18.07384073 -26 23 C-26 21.35 -26 19.7 -26 18 C-33.59 18 -41.18 18 -49 18 C-48.79375 21.67125 -48.5875 25.3425 -48.375 29.125 C-48.38317094 35.8669318 -48.66735077 41.41674327 -53.6171875 46.359375 C-57.40642514 49.46354102 -61.49154283 52.07050453 -65.69091797 54.58300781 C-68.92977188 56.57056418 -71.85154567 58.87705636 -74.8125 61.25 C-78.09713261 63.77631819 -81.3869663 66.29529798 -84.6875 68.80078125 C-85.29360107 69.26258789 -85.89970215 69.72439453 -86.52416992 70.20019531 C-87.69420683 71.09149988 -88.86617354 71.98027826 -90.0402832 72.86621094 C-91.3784881 73.88725941 -92.69210105 74.9404092 -94 76 C-94 76.33 -94 76.66 -94 77 C-83.11 77 -72.22 77 -61 77 C-61 98.78 -61 120.56 -61 143 C-20.08 143 20.84 143 63 143 C63 121.22 63 99.44 63 77 C75.21 77 87.42 77 100 77 C100 76.34 100 75.68 100 75 C98.09319688 73.6249992 98.09319688 73.6249992 95.5625 72.1875 C90.44400606 69.02607727 85.68872933 65.56269248 80.9375 61.875 C75.09527175 57.34776159 69.19750524 52.92721167 63.1875 48.625 C56.75345963 44.01377459 50.38641556 39.32366871 44.0625 34.5625 C31.75404312 25.29803159 19.38600482 16.11473868 6.875 7.125 C5.99545654 6.490177 5.99545654 6.490177 5.09814453 5.8425293 C-0.4942249 1.84761535 -1.27840955 3.91433764 -6.3125 7.9375 Z " fill="#3E7190" transform="translate(129,51)"/>
<path d="M0 0 C1.65 0 3.3 0 5 0 C5 0.66 5 1.32 5 2 C5.66 2.33 6.32 2.66 7 3 C5.68 3 4.36 3 3 3 C3.495 3.99 3.495 3.99 4 5 C5.88624182 5.65222109 5.88624182 5.65222109 8.125 6.1875 C13.40425117 7.88560308 16.86684637 10.39791526 20 15 C21.3656927 18.33403983 22.17797379 21.47012274 23 25 C26.3 25.33 29.6 25.66 33 26 C33 26.33 33 26.66 33 27 C29.37 27 25.74 27 22 27 C21.9071875 28.7634375 21.9071875 28.7634375 21.8125 30.5625 C21.16429071 35.38995337 19.57800265 38.66484821 16 42 C11.36469878 44.97019302 7.55835695 47 2 47 C2 49.31 2 51.62 2 54 C1.34 54 0.68 54 0 54 C0 51.69 0 49.38 0 47 C-0.86625 46.9175 -1.7325 46.835 -2.625 46.75 C-9.25506731 45.27665171 -13.12159335 41.27894239 -17 36 C-18.98109446 32.22648674 -19.19703837 29.23632506 -19 25 C-22.3 25 -25.6 25 -29 25 C-29 24.67 -29 24.34 -29 24 C-25.37 24 -21.74 24 -18 24 C-18.12375 22.700625 -18.12375 22.700625 -18.25 21.375 C-17.87886119 16.36462602 -15.79830596 13.67586811 -12.1640625 10.2890625 C-8.84070122 7.5768941 -6.83838702 6.08982718 -2.5 5.625 C-1.2625 5.810625 -1.2625 5.810625 0 6 C0 4.02 0 2.04 0 0 Z " fill="#F7FCFB" transform="translate(128,108)"/>
<path d="M0 0 C1.2375 -0.01417969 2.475 -0.02835937 3.75 -0.04296875 C7 0.1875 7 0.1875 10 2.1875 C12.9415983 2.39213157 12.9415983 2.39213157 16.125 2.25 C18.08269983 2.19601068 20.04166273 2.16703976 22 2.1875 C23.87243981 4.05993981 23.17380392 7.12409518 23.1875 9.625 C23.20167969 10.79933594 23.21585937 11.97367188 23.23046875 13.18359375 C23 16.1875 23 16.1875 21 18.1875 C15.03865067 18.59165928 12.09251968 17.92821991 6 16.1875 C5.67 22.1275 5.34 28.0675 5 34.1875 C8.3 34.1875 11.6 34.1875 15 34.1875 C15.33 33.1975 15.66 32.2075 16 31.1875 C15.67 33.1675 15.34 35.1475 15 37.1875 C10.71 37.1875 6.42 37.1875 2 37.1875 C1.89199053 34.10322954 1.81268998 31.02274253 1.75 27.9375 C1.71648437 27.06480469 1.68296875 26.19210938 1.6484375 25.29296875 C1.58928817 21.41868766 1.55237522 18.93950964 3.5625 15.5625 C6.99755847 13.62477471 9.36614424 14.00596047 13.25 14.4375 C15.14492187 14.63085938 15.14492187 14.63085938 17.078125 14.828125 C18.52445313 15.00601563 18.52445313 15.00601563 20 15.1875 C20 11.5575 20 7.9275 20 4.1875 C17.3703125 4.496875 17.3703125 4.496875 14.6875 4.8125 C9.375 5.4375 9.375 5.4375 6 3.1875 C-0.00092497 2.43299774 -6.20671265 2.19333221 -11.34375 5.71875 C-16.4406471 10.23863988 -20.623241 15.27817176 -24 21.1875 C-23.45730469 20.77757813 -22.91460937 20.36765625 -22.35546875 19.9453125 C-21.64003906 19.40648438 -20.92460938 18.86765625 -20.1875 18.3125 C-19.12595703 17.51199219 -19.12595703 17.51199219 -18.04296875 16.6953125 C-14.4314322 14.02981898 -12.53030451 12.72285338 -8 13.1875 C-6 15.1875 -6 15.1875 -5.77294922 17.43408203 C-5.78342285 18.34528809 -5.79389648 19.25649414 -5.8046875 20.1953125 C-5.81113281 21.18144531 -5.81757812 22.16757813 -5.82421875 23.18359375 C-5.84097656 24.21613281 -5.85773438 25.24867187 -5.875 26.3125 C-5.88402344 27.35277344 -5.89304688 28.39304687 -5.90234375 29.46484375 C-5.92596133 32.03915997 -5.96183316 34.61335838 -6 37.1875 C-11.28 37.1875 -16.56 37.1875 -22 37.1875 C-22 55.6675 -22 74.1475 -22 93.1875 C-3.52 93.1875 14.96 93.1875 34 93.1875 C34 87.5775 34 81.9675 34 76.1875 C34.66 76.1875 35.32 76.1875 36 76.1875 C36 81.7975 36 87.4075 36 93.1875 C54.81 93.1875 73.62 93.1875 93 93.1875 C92.34 94.1775 91.68 95.1675 91 96.1875 C88.92667198 96.55664349 88.92667198 96.55664349 86.31771851 96.54826355 C85.33051315 96.55238754 84.3433078 96.55651154 83.32618713 96.5607605 C82.23934128 96.54997467 81.15249542 96.53918884 80.03271484 96.52807617 C78.32052513 96.52873329 78.32052513 96.52873329 76.57374573 96.52940369 C72.78597134 96.52730709 68.99863494 96.50393446 65.2109375 96.48046875 C62.5906295 96.47487591 59.97031836 96.47060434 57.3500061 96.46760559 C51.14866085 96.45827245 44.94747381 96.43364169 38.7461983 96.40355712 C30.99489172 96.3667672 23.24355956 96.3503209 15.4921875 96.33398438 C1.66133501 96.30474481 -12.16917212 96.24465218 -26 96.1875 C-26 74.4075 -26 52.6275 -26 30.1875 C-32.27 30.1875 -38.54 30.1875 -45 30.1875 C-45.33 29.5275 -45.66 28.8675 -46 28.1875 C-38.41 28.1875 -30.82 28.1875 -23 28.1875 C-23 30.1675 -23 32.1475 -23 34.1875 C-18.05 34.1875 -13.1 34.1875 -8 34.1875 C-8.495 25.2775 -8.495 25.2775 -9 16.1875 C-14.10168182 17.20783636 -15.21203568 17.86448878 -18.8125 21.25 C-19.60269531 21.98347656 -20.39289063 22.71695313 -21.20703125 23.47265625 C-21.79871094 24.03855469 -22.39039062 24.60445312 -23 25.1875 C-24.32 24.5275 -25.64 23.8675 -27 23.1875 C-25.68950623 13.83385075 -17.2035103 6.65993418 -10 1.1875 C-6.50953395 0.02401132 -3.67722983 0.01915224 0 0 Z " fill="#F4FEFE" transform="translate(94,96.8125)"/>
<path d="M0 0 C0 0.66 0 1.32 0 2 C-12.21 2 -24.42 2 -37 2 C-37 23.78 -37 45.56 -37 68 C-77.92 68 -118.84 68 -161 68 C-161 67.67 -161 67.34 -161 67 C-160.09690267 66.99365209 -160.09690267 66.99365209 -159.17556095 66.98717594 C-144.54602773 66.88400454 -129.91654201 66.77538733 -115.28709507 66.66066074 C-108.21249122 66.60531273 -101.13788232 66.5518282 -94.06323242 66.50268555 C-87.24217287 66.45529923 -80.42116854 66.40277955 -73.60017204 66.34705925 C-70.99134549 66.32660053 -68.38250462 66.30789342 -65.77365303 66.29092598 C-62.13363567 66.26695958 -58.49371794 66.23689476 -54.85375977 66.20532227 C-53.76331863 66.1995668 -52.6728775 66.19381134 -51.5493927 66.18788147 C-50.07064667 66.17319824 -50.07064667 66.17319824 -48.56202698 66.15821838 C-47.70015054 66.15176583 -46.8382741 66.14531328 -45.95028019 66.1386652 C-43.9953142 66.21370668 -43.9953142 66.21370668 -43 65 C-42.87692689 63.28225833 -42.82213442 61.55957261 -42.79467773 59.83764648 C-42.77473251 58.73658066 -42.75478729 57.63551483 -42.73423767 56.50108337 C-42.71752518 55.3031868 -42.70081268 54.10529022 -42.68359375 52.87109375 C-42.6524221 51.04204247 -42.6524221 51.04204247 -42.62062073 49.17604065 C-42.55499572 45.26325355 -42.49618028 41.35039683 -42.4375 37.4375 C-42.39432709 34.79231038 -42.35071322 32.14712791 -42.30664062 29.50195312 C-42.19930116 23.00137425 -42.0980706 16.50072505 -42 10 C-45.96 10 -49.92 10 -54 10 C-55.06288316 16.46587258 -55.60891363 19.81361327 -51.9375 25.21875 C-50.13253183 28.64818952 -50.43363553 32.25380607 -51 36 C-52.51268289 40.0842438 -54.05171812 42.96603661 -58 45 C-59.98 44.505 -59.98 44.505 -62 44 C-62 40.7 -62 37.4 -62 34 C-65.67568464 33.08107884 -67.16380575 33.04095144 -71 34 C-71 37.3 -71 40.6 -71 44 C-72.32 44.33 -73.64 44.66 -75 45 C-79.90150895 39.34441276 -81.625 35.48694661 -81.625 27.8515625 C-80.63173123 23.31977372 -77.70627291 21.51076117 -74.13671875 18.79296875 C-71.43642782 16.52709391 -70.60282349 14.44470563 -70 11 C-72.97 10.67 -75.94 10.34 -79 10 C-79 8.66666667 -79 7.33333333 -79 6 C-74.71 6 -70.42 6 -66 6 C-67.04664386 13.04105872 -67.89302304 17.01178995 -73 22 C-73.928125 22.598125 -74.85625 23.19625 -75.8125 23.8125 C-78.32606787 26.32606787 -78.38009687 26.95490607 -78.5 30.375 C-78.26166885 34.75162651 -77.20141633 38.79858367 -74 42 C-73.98582031 41.38511719 -73.97164063 40.77023438 -73.95703125 40.13671875 C-73.56751431 33.53598574 -73.56751431 33.53598574 -70.75 30.875 C-67.60231378 29.87346348 -66.10349866 29.93827678 -63 31 C-61.515 31.99 -61.515 31.99 -60 33 C-59.70703125 35.3828125 -59.70703125 35.3828125 -59.8125 38.125 C-59.85310547 39.49011719 -59.85310547 39.49011719 -59.89453125 40.8828125 C-59.92933594 41.58148438 -59.96414062 42.28015625 -60 43 C-55.16476338 38.49458055 -55.16476338 38.49458055 -53.6875 32.3125 C-53.70174785 28.34447406 -55.00557491 26.25333689 -57.16796875 22.921875 C-58.82525523 19.09377666 -57.90342697 14.9572646 -57 11 C-56.34 9.35 -55.68 7.7 -55 6 C-50.71 6 -46.42 6 -42 6 C-42 3.03 -42 0.06 -42 -3 C-37.78755427 -3.24486934 -33.57489999 -3.45907576 -29.35961914 -3.64697266 C-27.93082777 -3.71474269 -26.50238371 -3.7903708 -25.07446289 -3.87451172 C-15.97026692 -4.40460521 -8.4129886 -4.04717857 0 0 Z " fill="#CDE2EB" transform="translate(229,126)"/>
<path d="M0 0 C3.96 0.33 7.92 0.66 12 1 C14.29161655 1.08470041 16.58327235 1.16836085 18.875 1.25 C24.70044155 1.66759438 26.9813783 2.87833672 31 7 C33.21735439 7.85279338 33.21735439 7.85279338 35 8 C35 6.02 35 4.04 35 2 C35.33 2 35.66 2 36 2 C36 4.31 36 6.62 36 9 C36.66 9.33 37.32 9.66 38 10 C30.625 10.5 30.625 10.5 25 6 C25 11.61 25 17.22 25 23 C26.32 21.68 27.64 20.36 29 19 C31.95664519 17.5216774 34.74229737 17.93967217 38 18 C38 18.66 38 19.32 38 20 C37.34 20 36.68 20 36 20 C36 25.61 36 31.22 36 37 C35.67 37 35.34 37 35 37 C35 31.39 35 25.78 35 20 C29.44256385 22.37847884 29.44256385 22.37847884 27.37182617 24.6418457 C25.60951842 26.38658997 24.49369931 26.48855316 22.05078125 26.73046875 C21.28443359 26.81103516 20.51808594 26.89160156 19.72851562 26.97460938 C18.93123047 27.04486328 18.13394531 27.11511719 17.3125 27.1875 C16.14557617 27.3102832 16.14557617 27.3102832 14.95507812 27.43554688 C9.90131801 27.93712941 5.13599184 28 0 28 C0 18.76 0 9.52 0 0 Z " fill="#BBE1ED" transform="translate(92,153)"/>
<path d="M0 0 C0.33 0.66 0.66 1.32 1 2 C-12.86 2 -26.72 2 -41 2 C-41 23.78 -41 45.56 -41 68 C-83.24 68 -125.48 68 -169 68 C-169 46.22 -169 24.44 -169 2 C-179.23 2 -189.46 2 -200 2 C-200 1.67 -200 1.34 -200 1 C-189.44 1 -178.88 1 -168 1 C-168 22.45 -168 43.9 -168 66 C-126.75 66 -85.5 66 -43 66 C-43 44.22 -43 22.44 -43 0 C-33.7496875 -0.2784375 -33.7496875 -0.2784375 -24.3125 -0.5625 C-22.37415283 -0.62381104 -20.43580566 -0.68512207 -18.4387207 -0.74829102 C-16.89275367 -0.79228098 -15.34677451 -0.83584775 -13.80078125 -0.87890625 C-13.0058728 -0.90561401 -12.21096436 -0.93232178 -11.39196777 -0.95983887 C-3.70179719 -1.16357595 -3.70179719 -1.16357595 0 0 Z " fill="#124E73" transform="translate(235,128)"/>
<path d="M0 0 C1.2375 -0.01417969 2.475 -0.02835937 3.75 -0.04296875 C7 0.1875 7 0.1875 10 2.1875 C12.9415983 2.39213157 12.9415983 2.39213157 16.125 2.25 C18.08269983 2.19601068 20.04166273 2.16703976 22 2.1875 C23.87243981 4.05993981 23.17380392 7.12409518 23.1875 9.625 C23.20167969 10.79933594 23.21585938 11.97367188 23.23046875 13.18359375 C23 16.1875 23 16.1875 21 18.1875 C15.03865067 18.59165928 12.09251968 17.92821991 6 16.1875 C5.67 22.1275 5.34 28.0675 5 34.1875 C8.3 34.1875 11.6 34.1875 15 34.1875 C15.33 33.1975 15.66 32.2075 16 31.1875 C15.67 33.1675 15.34 35.1475 15 37.1875 C10.71 37.1875 6.42 37.1875 2 37.1875 C1.89199053 34.10322954 1.81268998 31.02274253 1.75 27.9375 C1.71648437 27.06480469 1.68296875 26.19210938 1.6484375 25.29296875 C1.58928817 21.41868766 1.55237522 18.93950964 3.5625 15.5625 C6.99755847 13.62477471 9.36614424 14.00596047 13.25 14.4375 C15.14492187 14.63085938 15.14492187 14.63085938 17.078125 14.828125 C18.52445313 15.00601563 18.52445313 15.00601563 20 15.1875 C20 11.5575 20 7.9275 20 4.1875 C17.3703125 4.496875 17.3703125 4.496875 14.6875 4.8125 C9.375 5.4375 9.375 5.4375 6 3.1875 C-0.00092497 2.43299774 -6.20671265 2.19333221 -11.34375 5.71875 C-16.4406471 10.23863988 -20.623241 15.27817176 -24 21.1875 C-23.45730469 20.77757813 -22.91460937 20.36765625 -22.35546875 19.9453125 C-21.64003906 19.40648438 -20.92460938 18.86765625 -20.1875 18.3125 C-19.12595703 17.51199219 -19.12595703 17.51199219 -18.04296875 16.6953125 C-14.4314322 14.02981898 -12.53030451 12.72285338 -8 13.1875 C-6 15.1875 -6 15.1875 -5.77294922 17.43408203 C-5.78342285 18.34528809 -5.79389648 19.25649414 -5.8046875 20.1953125 C-5.81113281 21.18144531 -5.81757812 22.16757813 -5.82421875 23.18359375 C-5.84097656 24.21613281 -5.85773438 25.24867187 -5.875 26.3125 C-5.88402344 27.35277344 -5.89304687 28.39304687 -5.90234375 29.46484375 C-5.92596133 32.03915997 -5.96183316 34.61335838 -6 37.1875 C-11.28 37.1875 -16.56 37.1875 -22 37.1875 C-22 36.1975 -22 35.2075 -22 34.1875 C-17.38 34.1875 -12.76 34.1875 -8 34.1875 C-8.33 28.2475 -8.66 22.3075 -9 16.1875 C-14.10168182 17.20783636 -15.21203568 17.86448878 -18.8125 21.25 C-19.60269531 21.98347656 -20.39289063 22.71695313 -21.20703125 23.47265625 C-22.09455078 24.32150391 -22.09455078 24.32150391 -23 25.1875 C-24.32 24.5275 -25.64 23.8675 -27 23.1875 C-25.68950623 13.83385075 -17.2035103 6.65993418 -10 1.1875 C-6.50953395 0.02401132 -3.67722983 0.01915224 0 0 Z " fill="#C1F1FA" transform="translate(94,96.8125)"/>
<path d="M0 0 C0.66 0 1.32 0 2 0 C2 13.86 2 27.72 2 42 C3.65 42 5.3 42 7 42 C7 41.34 7 40.68 7 40 C7.99 40 8.98 40 10 40 C10 40.66 10 41.32 10 42 C12.64 41.01 15.28 40.02 18 39 C18 37.35 18 35.7 18 34 C18.66 34 19.32 34 20 34 C20.33 32.68 20.66 31.36 21 30 C16.05 30.495 16.05 30.495 11 31 C11 30.34 11 29.68 11 29 C12.60397277 28.83147753 14.2081869 28.66525114 15.8125 28.5 C16.70582031 28.4071875 17.59914062 28.314375 18.51953125 28.21875 C22.15176732 27.89842682 25.57183128 28.12434611 29.1875 28.5 C30.53908203 28.63921875 30.53908203 28.63921875 31.91796875 28.78125 C32.60503906 28.8534375 33.29210937 28.925625 34 29 C34 29.66 34 30.32 34 31 C30.7 30.67 27.4 30.34 24 30 C24.33 31.32 24.66 32.64 25 34 C25.66 34 26.32 34 27 34 C26.773125 34.598125 26.54625 35.19625 26.3125 35.8125 C25.73237126 38.03557028 25.73237126 38.03557028 27.19921875 39.60546875 C29.41966668 41.32499133 30.72129276 41.38885171 33.5 41.5 C36.18164309 41.60726572 37.57285471 41.69354918 39.76953125 43.26953125 C41.9460786 46.33051689 41.17958892 49.34835858 41 53 C38.69 53 36.38 53 34 53 C34 51.02 34 49.04 34 47 C33.41992188 47.144375 32.83984375 47.28875 32.2421875 47.4375 C27.77712555 48.49850482 23.62055133 49.4507855 19 49 C18.34 48.34 17.68 47.68 17 47 C14.34462628 46.43479997 11.70855287 46.26211802 9 46 C9 46.99 9 47.98 9 49 C8.34 49 7.68 49 7 49 C7 48.34 7 47.68 7 47 C5.35 47 3.7 47 2 47 C3.32 46.34 4.64 45.68 6 45 C6 44.34 6 43.68 6 43 C4.35 43 2.7 43 1 43 C0.67 28.81 0.34 14.62 0 0 Z " fill="#1A5E86" transform="translate(126,61)"/>
<path d="M0 0 C2.75321386 1.30697016 5.19633274 2.75582867 7.66015625 4.546875 C8.36132568 5.05468506 9.06249512 5.56249512 9.78491211 6.08569336 C10.53651611 6.63491455 11.28812012 7.18413574 12.0625 7.75 C12.85470947 8.32564697 13.64691895 8.90129395 14.46313477 9.49438477 C22.53417368 15.36805615 30.56781871 21.29265491 38.59570312 27.22509766 C41.0148571 29.01096782 43.43666019 30.79318282 45.859375 32.57421875 C53.28688633 38.03584449 60.69985625 43.513668 68.0625 49.0625 C79.86397853 57.94819662 91.84614431 66.60223539 104 75 C102.02 75.99 102.02 75.99 100 77 C100 76.34 100 75.68 100 75 C99.35289062 74.79890625 98.70578125 74.5978125 98.0390625 74.390625 C93.7143584 72.41171155 90.16029444 69.60670958 86.375 66.75 C84.66417044 65.47381362 82.95322986 64.19777606 81.2421875 62.921875 C80.37045898 62.26896484 79.49873047 61.61605469 78.60058594 60.94335938 C74.58273391 57.94090893 70.54098901 54.97119167 66.5 52 C64.91653557 50.83351127 63.33320261 49.66684405 61.75 48.5 C60.574375 47.63375 60.574375 47.63375 59.375 46.75 C52.25 41.5 52.25 41.5 49.87475586 39.74975586 C48.29231815 38.58379194 46.70979869 37.41793896 45.12719727 36.25219727 C41.15448113 33.32568557 37.18323006 30.39722466 33.21484375 27.46484375 C22.52761384 19.57169647 11.78739784 11.75569648 1 4 C-0.44000573 4.94869636 -1.8785205 5.89965607 -3.31640625 6.8515625 C-4.11763916 7.38088379 -4.91887207 7.91020508 -5.74438477 8.45556641 C-8.16517989 10.06923572 -8.16517989 10.06923572 -10.9375 12.375 C-13 14 -13 14 -15 14 C-13.45771856 9.59935696 -9.98573023 7.40404102 -6.375 4.75 C-5.76398438 4.29109375 -5.15296875 3.8321875 -4.5234375 3.359375 C-3.0209208 2.23248748 -1.51115591 1.11527563 0 0 Z " fill="#286181" transform="translate(129,51)"/>
<path d="M0 0 C9.9 0 19.8 0 30 0 C30 0.33 30 0.66 30 1 C20.43 1 10.86 1 1 1 C1 3.97 1 6.94 1 10 C0.67 10.99 0.34 11.98 0 13 C-3.96 13 -7.92 13 -12 13 C-13.06288316 19.46587258 -13.60891363 22.81361327 -9.9375 28.21875 C-8.13253183 31.64818952 -8.43363553 35.25380607 -9 39 C-10.51268289 43.0842438 -12.05171812 45.96603661 -16 48 C-17.32 47.67 -18.64 47.34 -20 47 C-20 43.7 -20 40.4 -20 37 C-23.67568464 36.08107884 -25.16380575 36.04095144 -29 37 C-29 40.3 -29 43.6 -29 47 C-30.98 47.495 -30.98 47.495 -33 48 C-37.90150895 42.34441276 -39.625 38.48694661 -39.625 30.8515625 C-38.63173123 26.31977372 -35.70627291 24.51076117 -32.13671875 21.79296875 C-29.43642782 19.52709391 -28.60282349 17.44470563 -28 14 C-30.97 13.67 -33.94 13.34 -37 13 C-37 11.66666667 -37 10.33333333 -37 9 C-32.71 9 -28.42 9 -24 9 C-25.04664386 16.04105872 -25.89302304 20.01178995 -31 25 C-31.928125 25.598125 -32.85625 26.19625 -33.8125 26.8125 C-36.32606787 29.32606787 -36.38009687 29.95490607 -36.5 33.375 C-36.26166885 37.75162651 -35.20141633 41.79858367 -32 45 C-31.98582031 44.38511719 -31.97164062 43.77023438 -31.95703125 43.13671875 C-31.56751431 36.53598574 -31.56751431 36.53598574 -28.75 33.875 C-25.60231378 32.87346348 -24.10349866 32.93827678 -21 34 C-20.01 34.66 -19.02 35.32 -18 36 C-17.70703125 38.3828125 -17.70703125 38.3828125 -17.8125 41.125 C-17.83957031 42.03507812 -17.86664063 42.94515625 -17.89453125 43.8828125 C-17.92933594 44.58148438 -17.96414062 45.28015625 -18 46 C-13.16476338 41.49458055 -13.16476338 41.49458055 -11.6875 35.3125 C-11.70174785 31.34447406 -13.00557491 29.25333689 -15.16796875 25.921875 C-16.82525523 22.09377666 -15.90342697 17.9572646 -15 14 C-14.34 12.35 -13.68 10.7 -13 9 C-8.71 9 -4.42 9 0 9 C0 6.03 0 3.06 0 0 Z " fill="#C8F3FB" transform="translate(187,123)"/>
<path d="M0 0 C0.625 1.875 0.625 1.875 1 4 C-1 6 -1 6 -4.125 6.125 C-5.07375 6.08375 -6.0225 6.0425 -7 6 C-6.67 7.98 -6.34 9.96 -6 12 C-5.39671875 12.01417969 -4.7934375 12.02835938 -4.171875 12.04296875 C-0.13391765 12.28394362 2.31321452 12.46397231 5.5625 15 C7.49038972 19.02342202 7.55423983 22.60242498 7 27 C6 28 6 28 3.96875 28.1328125 C3.1540625 28.13023438 2.339375 28.12765625 1.5 28.125 C0.6853125 28.12757812 -0.129375 28.13015625 -0.96875 28.1328125 C-3 28 -3 28 -4 27 C-4.04063832 25.33382885 -4.042721 23.66611905 -4 22 C-4.845625 22.33 -5.69125 22.66 -6.5625 23 C-10.74266888 24.21604913 -14.97751725 25.01124138 -19 23 C-22.04173894 22.83329727 -22.04173894 22.83329727 -25 23 C-25.33 23.33 -25.66 23.66 -26 24 C-27.66617115 24.04063832 -29.33388095 24.042721 -31 24 C-29.68 23.67 -28.36 23.34 -27 23 C-27 21.68 -27 20.36 -27 19 C-20.9453125 18.8046875 -20.9453125 18.8046875 -19 19 C-18.34 19.66 -17.68 20.32 -17 21 C-14.40730017 20.98252112 -11.9474846 20.86231408 -9.375 20.625 C-8.66859375 20.56828125 -7.9621875 20.5115625 -7.234375 20.453125 C-5.48878639 20.31159079 -3.74426327 20.15702613 -2 20 C-2 21.98 -2 23.96 -2 26 C0.31 26 2.62 26 5 26 C4.87625 24.72125 4.7525 23.4425 4.625 22.125 C4.55539063 21.40570313 4.48578125 20.68640625 4.4140625 19.9453125 C4.13625251 17.77331755 4.13625251 17.77331755 2 16 C-0.07220839 15.68871139 -0.07220839 15.68871139 -2.375 15.625 C-5.81945286 15.33102898 -6.77118541 15.18416784 -9.5625 12.9375 C-10.036875 12.298125 -10.51125 11.65875 -11 11 C-10.34 10.67 -9.68 10.34 -9 10 C-9 9.01 -9 8.02 -9 7 C-9.66 7 -10.32 7 -11 7 C-11.33 5.68 -11.66 4.36 -12 3 C-8.7 3.33 -5.4 3.66 -2 4 C-2 3.34 -2 2.68 -2 2 C-2.68707031 2 -3.37414062 2 -4.08203125 2 C-11.0546875 2 -18.02734375 2 -25 2 C-25 2.66 -25 3.32 -25 4 C-21.7 3.67 -18.4 3.34 -15 3 C-15.33 4.32 -15.66 5.64 -16 7 C-16.66 7 -17.32 7 -18 7 C-17.67 8.65 -17.34 10.3 -17 12 C-22.625 15 -22.625 15 -26 15 C-26 14.34 -26 13.68 -26 13 C-27.65 12.67 -29.3 12.34 -31 12 C-31 11.67 -31 11.34 -31 11 C-27.7 11 -24.4 11 -21 11 C-20.67 9.35 -20.34 7.7 -20 6 C-21.423125 6.061875 -21.423125 6.061875 -22.875 6.125 C-26 6 -26 6 -28 4 C-27.46428571 0.46428571 -27.46428571 0.46428571 -26 -1 C-17.1449869 -2.73250256 -8.78280381 -1.43416904 0 0 Z " fill="#C0EDF6" transform="translate(162,88)"/>
<path d="M0 0 C10.395 0.99 10.395 0.99 21 2 C21 2.66 21 3.32 21 4 C19.68 4 18.36 4 17 4 C17 4.66 17 5.32 17 6 C18.32 6 19.64 6 21 6 C21 11.28 21 16.56 21 22 C18.64875 22.33 16.2975 22.66 13.875 23 C13.14651855 23.10441406 12.41803711 23.20882812 11.66748047 23.31640625 C7.7458461 23.85247995 3.95559003 24.09858168 0 24 C0 23.01 0 22.02 0 21 C3.3 20.67 6.6 20.34 10 20 C6.7 20 3.4 20 0 20 C0 19.01 0 18.02 0 17 C3.3 16.67 6.6 16.34 10 16 C6.7 15.67 3.4 15.34 0 15 C0 14.34 0 13.68 0 13 C4.29 13 8.58 13 13 13 C13 12.34 13 11.68 13 11 C8.71 11 4.42 11 0 11 C0 10.34 0 9.68 0 9 C1.98 8.67 3.96 8.34 6 8 C3.03 7.505 3.03 7.505 0 7 C0 6.34 0 5.68 0 5 C1.98 4.67 3.96 4.34 6 4 C3.03 3.505 3.03 3.505 0 3 C0 2.01 0 1.02 0 0 Z " fill="#2E6688" transform="translate(94,155)"/>
<path d="M0 0 C0.33 0 0.66 0 1 0 C1.07347656 1.15628906 1.07347656 1.15628906 1.1484375 2.3359375 C1.22320312 3.33882813 1.29796875 4.34171875 1.375 5.375 C1.44460937 6.37273437 1.51421875 7.37046875 1.5859375 8.3984375 C1.76363964 11.15508879 1.76363964 11.15508879 4 13 C8 21.32 8 21.32 8 26 C5.5333105 29.43841567 4.07042306 30.80732385 -0.125 31.5625 C-3 31 -3 31 -4.875 29.375 C-6.37835039 26.20126028 -6.46334944 24.5082172 -6 21 C-3.07894737 13.07894737 -3.07894737 13.07894737 -1 11 C-0.76636119 9.15108054 -0.58696365 7.29511969 -0.4375 5.4375 C-0.35371094 4.42558594 -0.26992187 3.41367188 -0.18359375 2.37109375 C-0.12300781 1.58863281 -0.06242188 0.80617188 0 0 Z " fill="#F09729" transform="translate(129,113)"/>
<path d="M0 0 C4.47673252 0.17218202 8.60598974 -0.14263214 13 -1 C13.33 0.65 13.66 2.3 14 4 C16.97 4.33 19.94 4.66 23 5 C22.67 6.32 22.34 7.64 22 9 C22.66 9 23.32 9 24 9 C24 11.64 24 14.28 24 17 C17.9453125 17.9765625 17.9453125 17.9765625 16 18 C15.34 17.34 14.68 16.68 14 16 C14.32657554 12.24438133 15.1169378 9.26397448 17 6 C14.525 5.505 14.525 5.505 12 5 C11.67 3.68 11.34 2.36 11 1 C10.01 1.33 9.02 1.66 8 2 C6.33541327 2.09308544 4.66718003 2.12996185 3 2.125 C1.700625 2.12886719 1.700625 2.12886719 0.375 2.1328125 C-2 2 -2 2 -5 1 C-5 1.66 -5 2.32 -5 3 C-4.01 3.33 -3.02 3.66 -2 4 C-1.3125 6.0625 -1.3125 6.0625 -1 8 C-1.51949219 7.73445313 -2.03898438 7.46890625 -2.57421875 7.1953125 C-6.33020694 5.29301903 -10.05225879 3.48040295 -14 2 C-14 1.67 -14 1.34 -14 1 C-9.35846395 -0.76820421 -4.68450286 -2.34225143 0 0 Z " fill="#22A6D8" transform="translate(145,111)"/>
<path d="M0 0 C0.33 0 0.66 0 1 0 C1 18.48 1 36.96 1 56 C-0.485 56.495 -0.485 56.495 -2 57 C-2.02516402 52.04191435 -2.04307348 47.08386778 -2.05493164 42.12573242 C-2.05988737 40.4473404 -2.06665388 38.76895252 -2.07543945 37.09057617 C-2.1207223 28.20181927 -2.06057364 19.34165004 -1.55859375 10.46484375 C-1.51960464 9.75477676 -1.48061554 9.04470978 -1.44044495 8.31312561 C-1.25135634 5.33358019 -0.94938338 2.84815015 0 0 Z " fill="#DEF9FE" transform="translate(71,134)"/>
<path d="M0 0 C0.33 0 0.66 0 1 0 C1.19393875 2.14526099 1.37998676 4.29123677 1.5625 6.4375 C1.66691406 7.63246094 1.77132812 8.82742187 1.87890625 10.05859375 C1.91886719 11.02925781 1.95882812 11.99992187 2 13 C0.1981953 14.8018047 -2.20468074 14.17836262 -4.6015625 14.23046875 C-7 14 -7 14 -14 12 C-14.33 17.94 -14.66 23.88 -15 30 C-11.7 30 -8.4 30 -5 30 C-4.67 29.01 -4.34 28.02 -4 27 C-4.33 28.98 -4.66 30.96 -5 33 C-9.29 33 -13.58 33 -18 33 C-18.10800947 29.91572954 -18.18731002 26.83524253 -18.25 23.75 C-18.28351563 22.87730469 -18.31703125 22.00460938 -18.3515625 21.10546875 C-18.41071183 17.23118766 -18.44762478 14.75200964 -16.4375 11.375 C-13.00244153 9.43727471 -10.63385576 9.81846047 -6.75 10.25 C-5.48671875 10.37890625 -4.2234375 10.5078125 -2.921875 10.640625 C-1.47554687 10.81851563 -1.47554687 10.81851563 0 11 C0 7.37 0 3.74 0 0 Z " fill="#A1DAED" transform="translate(114,101)"/>
<path d="M0 0 C0.99 0.33 1.98 0.66 3 1 C2.67 13.87 2.34 26.74 2 40 C2.66 40 3.32 40 4 40 C4 40.99 4 41.98 4 43 C2.35 43 0.7 43 -1 43 C-1.02464574 37.03686834 -1.042834 31.07376605 -1.05493164 25.1105957 C-1.05997278 23.08031702 -1.06680557 21.05004198 -1.07543945 19.01977539 C-1.08751467 16.10822653 -1.09323034 13.1967255 -1.09765625 10.28515625 C-1.10281754 9.3716188 -1.10797882 8.45808136 -1.11329651 7.51686096 C-1.11349168 5.34424573 -1.06211805 3.17172704 -1 1 C-0.67 0.67 -0.34 0.34 0 0 Z " fill="#DCFDFE" transform="translate(129,60)"/>
<path d="M0 0 C2.31 0 4.62 0 7 0 C7 0.66 7 1.32 7 2 C5.68 2 4.36 2 3 2 C3 2.66 3 3.32 3 4 C4.32 4 5.64 4 7 4 C7 9.28 7 14.56 7 20 C4.69 20 2.38 20 0 20 C0 13.4 0 6.8 0 0 Z " fill="#135B88" transform="translate(108,157)"/>
<path d="M0 0 C9.9 0 19.8 0 30 0 C30 0.33 30 0.66 30 1 C20.43 1 10.86 1 1 1 C1 3.97 1 6.94 1 10 C0.67 10.99 0.34 11.98 0 13 C-3.96 13 -7.92 13 -12 13 C-13.42465201 20.19459285 -13.42465201 20.19459285 -11 26.75 C-9 30 -9 30 -9.25 33.4375 C-9.4975 34.283125 -9.745 35.12875 -10 36 C-10.33 36 -10.66 36 -11 36 C-11.19335938 35.38511719 -11.38671875 34.77023438 -11.5859375 34.13671875 C-11.84632813 33.32847656 -12.10671875 32.52023438 -12.375 31.6875 C-12.63023437 30.88699219 -12.88546875 30.08648437 -13.1484375 29.26171875 C-13.98831811 26.77275472 -13.98831811 26.77275472 -16 24 C-16.046875 21.6953125 -16.046875 21.6953125 -15.75 19.125 C-15.61851562 17.86042969 -15.61851562 17.86042969 -15.484375 16.5703125 C-15 14 -15 14 -13 9 C-8.71 9 -4.42 9 0 9 C0 6.03 0 3.06 0 0 Z " fill="#9FE0F2" transform="translate(187,123)"/>
<path d="M0 0 C0.66 0.99 1.32 1.98 2 3 C0.37982158 4.33918806 -1.24629343 5.6711969 -2.875 7 C-3.77992187 7.7425 -4.68484375 8.485 -5.6171875 9.25 C-8 11 -8 11 -10 11 C-10 9.35 -10 7.7 -10 6 C-16.6 6 -23.2 6 -30 6 C-30 5.67 -30 5.34 -30 5 C-31.65 4.67 -33.3 4.34 -35 4 C-35 11.92 -35 19.84 -35 28 C-35.33 28 -35.66 28 -36 28 C-36 19.75 -36 11.5 -36 3 C-26.43 3 -16.86 3 -7 3 C-6.67 3.66 -6.34 4.32 -6 5 C-4.02 3.35 -2.04 1.7 0 0 Z " fill="#51819D" transform="translate(113,63)"/>
<path d="M0 0 C1.98 0.99 1.98 0.99 4 2 C3.01 2.33 2.02 2.66 1 3 C1.33 10.59 1.66 18.18 2 26 C2.99 26.33 3.98 26.66 5 27 C4.67 28.32 4.34 29.64 4 31 C6.31 31.66 8.62 32.32 11 33 C11 34.65 11 36.3 11 38 C6.64425167 39.15299221 4.83348343 38.80558057 0 38 C0 25.46 0 12.92 0 0 Z " fill="#1FA5D9" transform="translate(131,61)"/>
<path d="M0 0 C0.49628906 0.39832031 0.99257812 0.79664063 1.50390625 1.20703125 C5.85302633 4.59884975 9.8350929 7.06315984 15 9 C15 10.98 15 12.96 15 15 C12.125 14.75 12.125 14.75 9 14 C8.6999707 13.34088623 8.39994141 12.68177246 8.09082031 12.00268555 C7.1923478 9.79497068 7.1923478 9.79497068 4.94042969 9.37817383 C4.10930664 9.32169678 3.27818359 9.26521973 2.421875 9.20703125 C1.50792969 9.13419922 0.59398438 9.06136719 -0.34765625 8.98632812 C-1.78431641 8.9002832 -1.78431641 8.9002832 -3.25 8.8125 C-5.13033398 8.67488322 -7.01054707 8.53560302 -8.890625 8.39453125 C-9.77427734 8.33217285 -10.65792969 8.26981445 -11.56835938 8.20556641 C-14.41285136 7.96509831 -17.19758211 7.54073499 -20 7 C-20 6.67 -20 6.34 -20 6 C-12.41 6 -4.82 6 3 6 C2.34 5.67 1.68 5.34 1 5 C0.375 2.4375 0.375 2.4375 0 0 Z " fill="#2AA8D9" transform="translate(112,146)"/>
<path d="M0 0 C8.91 0 17.82 0 27 0 C27 0.33 27 0.66 27 1 C14.625 1.495 14.625 1.495 2 2 C2.31530984 9.63051104 2.31530984 9.63051104 2.72070312 17.25634766 C2.88058871 24.93472406 2.88058871 24.93472406 0.25390625 28.11230469 C-4.80169753 32 -4.80169753 32 -8 32 C-6.86946304 29.12226955 -6.25015581 28.13588711 -3.46875 26.625 C0.54838705 22.35361377 -0.21852363 17.39405749 -0.1875 11.75 C-0.125625 7.8725 -0.06375 3.995 0 0 Z " fill="#175577" transform="translate(78,67)"/>
<path d="M0 0 C1.65 0 3.3 0 5 0 C5 0.66 5 1.32 5 2 C5.66 2.33 6.32 2.66 7 3 C5.68 3 4.36 3 3 3 C3.46019531 3.71929687 3.46019531 3.71929687 3.9296875 4.453125 C5.4745912 8.12931921 5.72592637 11.80505902 6.125 15.75 C6.21136719 16.54277344 6.29773438 17.33554688 6.38671875 18.15234375 C6.59800054 20.10083141 6.79992467 22.05032976 7 24 C4.77810176 21.77810176 4.07401108 19.91517292 3 17 C2.01 17 1.02 17 0 17 C-0.99 19.475 -0.99 19.475 -2 22 C-2.33 22 -2.66 22 -3 22 C-3 20.02 -3 18.04 -3 16 C-2.34 16 -1.68 16 -1 16 C-1 13.03 -1 10.06 -1 7 C-2.65 7 -4.3 7 -6 7 C-6 6.67 -6 6.34 -6 6 C-4.02 6 -2.04 6 0 6 C0 4.02 0 2.04 0 0 Z " fill="#F6EECC" transform="translate(128,108)"/>
<path d="M0 0 C0.7425 0.185625 1.485 0.37125 2.25 0.5625 C5.05944338 1.0094569 6.32144789 0.73051421 9 0 C10.99963028 -0.03845443 13.00051633 -0.04544281 15 0 C15.625 1.875 15.625 1.875 16 4 C15.34 4.66 14.68 5.32 14 6 C14.66 6.66 15.32 7.32 16 8 C14.39667209 8.08121924 12.79215974 8.13929134 11.1875 8.1875 C10.29417969 8.22230469 9.40085938 8.25710938 8.48046875 8.29296875 C5.58352485 7.95081002 4.77444972 7.24606427 3 5 C2.67 5.33 2.34 5.66 2 6 C2.66 6.66 3.32 7.32 4 8 C2.35 8 0.7 8 -1 8 C-0.690625 7.401875 -0.38125 6.80375 -0.0625 6.1875 C1.10209704 3.91043228 1.10209704 3.91043228 2 1 C1.34 0.67 0.68 0.34 0 0 Z " fill="#A3A3A3" transform="translate(176,267)"/>
<path d="M0 0 C0 0.66 0 1.32 0 2 C-0.66 2 -1.32 2 -2 2 C-2 7.61 -2 13.22 -2 19 C-2.33 19 -2.66 19 -3 19 C-3 13.39 -3 7.78 -3 2 C-8.56589909 4.35917845 -8.56589909 4.35917845 -10.56030273 6.63745117 C-12.60597384 8.57350178 -14.26072304 8.54978851 -17.03515625 8.80078125 C-18.00904297 8.89037109 -18.98292969 8.97996094 -19.98632812 9.07226562 C-21.00146484 9.15154297 -22.01660156 9.23082031 -23.0625 9.3125 C-24.08150391 9.41111328 -25.10050781 9.50972656 -26.15039062 9.61132812 C-31.77486351 10.09214787 -31.77486351 10.09214787 -34 10 C-34.66 9.34 -35.32 8.68 -36 8 C-29.99427816 6.92043743 -24.0978096 5.96239567 -18 5.625 C-14.43196271 5.3477712 -13.32819642 5.2561533 -10.4375 3 C-9.963125 2.34 -9.48875 1.68 -9 1 C-6.04335481 -0.4783226 -3.25770263 -0.06032783 0 0 Z " fill="#B9EAF5" transform="translate(130,171)"/>
<path d="M0 0 C1.63001953 0.01353516 1.63001953 0.01353516 3.29296875 0.02734375 C4.12441406 0.03894531 4.95585938 0.05054687 5.8125 0.0625 C6.1425 0.7225 6.4725 1.3825 6.8125 2.0625 C2.1925 2.0625 -2.4275 2.0625 -7.1875 2.0625 C-7.1875 2.7225 -7.1875 3.3825 -7.1875 4.0625 C-7.991875 4.35125 -8.79625 4.64 -9.625 4.9375 C-12.3201468 5.79512568 -12.3201468 5.79512568 -13.1875 8.0625 C-13.8475 8.0625 -14.5075 8.0625 -15.1875 8.0625 C-15.1875 8.7225 -15.1875 9.3825 -15.1875 10.0625 C-12.8775 10.0625 -10.5675 10.0625 -8.1875 10.0625 C-8.1875 10.3925 -8.1875 10.7225 -8.1875 11.0625 C-9.1775 11.248125 -10.1675 11.43375 -11.1875 11.625 C-16.20726661 13.01082514 -19.53200454 16.51144727 -23.1875 20.0625 C-23.8475 19.7325 -24.5075 19.4025 -25.1875 19.0625 C-18.89892365 9.19489467 -12.50202889 -0.13443042 0 0 Z " fill="#27A1D1" transform="translate(94.1875,98.9375)"/>
<path d="M0 0 C13.375 0 13.375 0 17 1 C16.6875 3.375 16.6875 3.375 16 6 C15.01 6.66 14.02 7.32 13 8 C12.67 6.35 12.34 4.7 12 3 C11.34 4.65 10.68 6.3 10 8 C7.23723823 7.47731534 4.6739124 6.89130413 2 6 C2 6.66 2 7.32 2 8 C1.34 7.67 0.68 7.34 0 7 C0.99 5.02 1.98 3.04 3 1 C2.01 0.67 1.02 0.34 0 0 Z " fill="#767676" transform="translate(151,267)"/>
<path d="M0 0 C0.495 0.99 0.495 0.99 1 2 C-13.19 2.33 -27.38 2.66 -42 3 C-42 2.01 -42 1.02 -42 0 C-36.82238679 -0.16805236 -31.64461449 -0.32856463 -26.46655273 -0.48217773 C-24.70607254 -0.53545692 -22.94565278 -0.59077464 -21.18530273 -0.64819336 C-18.65101144 -0.73049878 -16.11659131 -0.80540462 -13.58203125 -0.87890625 C-12.40674614 -0.91945885 -12.40674614 -0.91945885 -11.2077179 -0.96083069 C-7.34893832 -1.06556888 -3.71018126 -1.15834193 0 0 Z " fill="#19567B" transform="translate(235,128)"/>
<path d="M0 0 C0.66 0 1.32 0 2 0 C2.33 1.32 2.66 2.64 3 4 C3.66 3.67 4.32 3.34 5 3 C5 4.32 5 5.64 5 7 C5.99 7.66 6.98 8.32 8 9 C7.195625 8.814375 6.39125 8.62875 5.5625 8.4375 C4.716875 8.293125 3.87125 8.14875 3 8 C2.67 8.33 2.34 8.66 2 9 C0.00045254 9.04254356 -2.00041636 9.04080783 -4 9 C-4.66 9 -5.32 9 -6 9 C-7.32 9 -8.64 9 -10 9 C-10.625 7.125 -10.625 7.125 -11 5 C-10.34 4.34 -9.68 3.68 -9 3 C-7.66400079 3.32248257 -6.33106622 3.65772583 -5 4 C-2.31850007 3.61432869 -2.31850007 3.61432869 0 3 C0 2.01 0 1.02 0 0 Z " fill="#9E9E9E" transform="translate(112,266)"/>
<path d="M0 0 C0.66 0 1.32 0 2 0 C2 13.86 2 27.72 2 42 C3.65 42 5.3 42 7 42 C7 41.34 7 40.68 7 40 C7.99 40 8.98 40 10 40 C10.33 41.65 10.66 43.3 11 45 C10.34 45 9.68 45 9 45 C9 46.32 9 47.64 9 49 C8.34 49 7.68 49 7 49 C7 48.34 7 47.68 7 47 C5.35 47 3.7 47 2 47 C3.32 46.34 4.64 45.68 6 45 C6 44.34 6 43.68 6 43 C4.35 43 2.7 43 1 43 C0.67 28.81 0.34 14.62 0 0 Z " fill="#376F91" transform="translate(126,61)"/>
<path d="M0 0 C0.99 0.66 1.98 1.32 3 2 C3.29296875 4.3828125 3.29296875 4.3828125 3.1875 7.125 C3.16042969 8.03507813 3.13335937 8.94515625 3.10546875 9.8828125 C3.07066406 10.58148438 3.03585938 11.28015625 3 12 C7.55519783 8.06036945 9.15451681 4.73071096 11 -1 C11.33 -1 11.66 -1 12 -1 C11.80349601 3.50976659 11.55572159 7.04733442 9.25 11 C6.75478713 13.21796699 5.3098554 13.8210889 2 14 C1 13 1 13 0.90234375 10.71484375 C0.91394531 9.79832031 0.92554688 8.88179687 0.9375 7.9375 C0.94652344 7.01839844 0.95554688 6.09929687 0.96484375 5.15234375 C0.97644531 4.44207031 0.98804688 3.73179687 1 3 C-2.28696233 2.20046862 -3.71023192 1.90341064 -7 3 C-7 2.01 -7 1.02 -7 0 C-4.28569464 -1.35715268 -2.88661718 -0.77445827 0 0 Z " fill="#C7F2FB" transform="translate(166,157)"/>
<path d="M0 0 C1.875 0.3125 1.875 0.3125 4 1 C6.14915785 4.22373677 6.38286803 5.26703674 6 9 C4 11 4 11 1.5 11.25 C-1 11 -1 11 -3 9 C-2.67582137 5.19090105 -2.14418558 3.21627837 0 0 Z " fill="#B6F7FE" transform="translate(162,118)"/>
<path d="M0 0 C4.88845576 0.32589705 6.71698834 1.4981209 10 5 C12.1381966 5.7872678 12.1381966 5.7872678 14 6 C14 4.02 14 2.04 14 0 C14.33 0 14.66 0 15 0 C15 2.31 15 4.62 15 7 C15.66 7.33 16.32 7.66 17 8 C9.625 8.5 9.625 8.5 4 4 C3.67 9.94 3.34 15.88 3 22 C2.67 22 2.34 22 2 22 C2 16.72 2 11.44 2 6 C0.68 6 -0.64 6 -2 6 C-2 5.34 -2 4.68 -2 4 C-0.68 4 0.64 4 2 4 C2 3.34 2 2.68 2 2 C1.01 1.67 0.02 1.34 -1 1 C-0.67 0.67 -0.34 0.34 0 0 Z " fill="#ACE0F1" transform="translate(113,155)"/>
<path d="M0 0 C0.33 0.99 0.66 1.98 1 3 C2.98 3 4.96 3 7 3 C7 4.65 7 6.3 7 8 C7.66 8 8.32 8 9 8 C9 6.35 9 4.7 9 3 C9.99 3 10.98 3 12 3 C12.33 2.34 12.66 1.68 13 1 C13 1.66 13 2.32 13 3 C13.99 3 14.98 3 16 3 C16.33 2.34 16.66 1.68 17 1 C17 1.66 17 2.32 17 3 C17.66 3.33 18.32 3.66 19 4 C18.34 4 17.68 4 17 4 C17 5.32 17 6.64 17 8 C17.66 8.33 18.32 8.66 19 9 C18.01 9 17.02 9 16 9 C16 7.35 16 5.7 16 4 C15.01 4 14.02 4 13 4 C13 5.32 13 6.64 13 8 C13.66 8.33 14.32 8.66 15 9 C11.04 9 7.08 9 3 9 C3 7.35 3 5.7 3 4 C2.34 4 1.68 4 1 4 C1 5.65 1 7.3 1 9 C0.67 9 0.34 9 0 9 C0 6.03 0 3.06 0 0 Z " fill="#747474" transform="translate(63,266)"/>
<path d="M0 0 C0.33 0 0.66 0 1 0 C1 6.27 1 12.54 1 19 C-4.28 19 -9.56 19 -15 19 C-15 18.01 -15 17.02 -15 16 C-10.38 16 -5.76 16 -1 16 C-1.020625 14.659375 -1.04125 13.31875 -1.0625 11.9375 C-1.06896884 7.84919311 -0.68530907 4.02619081 0 0 Z " fill="#D2F4FA" transform="translate(87,115)"/>
<path d="M0 0 C1.77503906 0.03480469 1.77503906 0.03480469 3.5859375 0.0703125 C5.36871094 0.09738281 5.36871094 0.09738281 7.1875 0.125 C8.10273438 0.14820313 9.01796875 0.17140625 9.9609375 0.1953125 C8.9709375 0.6903125 8.9709375 0.6903125 7.9609375 1.1953125 C7.9609375 2.8453125 7.9609375 4.4953125 7.9609375 6.1953125 C4.0009375 6.1953125 0.0409375 6.1953125 -4.0390625 6.1953125 C-4.3690625 4.8753125 -4.6990625 3.5553125 -5.0390625 2.1953125 C-3.0390625 0.1953125 -3.0390625 0.1953125 0 0 Z " fill="#A6A6A6" transform="translate(126.0390625,268.8046875)"/>
<path d="M0 0 C6.5909465 0.8872428 6.5909465 0.8872428 8.94140625 1.53515625 C11.26183966 2.05912509 13.31272753 2.0628039 15.6875 2 C17.12450738 1.96236969 18.56325645 1.95337141 20 2 C21 3 21 3 21.09765625 5.94140625 C21.08605469 7.13636719 21.07445313 8.33132812 21.0625 9.5625 C21.05347656 10.76003906 21.04445313 11.95757812 21.03515625 13.19140625 C21.02355469 14.11824219 21.01195313 15.04507813 21 16 C20.34 16 19.68 16 19 16 C19 12.04 19 8.08 19 4 C16.2465625 4.3403125 16.2465625 4.3403125 13.4375 4.6875 C7.93611745 5.16927788 4.76798196 4.70908066 0 2 C0 1.34 0 0.68 0 0 Z " fill="#BBEBF5" transform="translate(96,97)"/>
<path d="M0 0 C0.66 0 1.32 0 2 0 C2 5.28 2 10.56 2 16 C5.63 16 9.26 16 13 16 C13.33 15.01 13.66 14.02 14 13 C13.67 14.98 13.34 16.96 13 19 C8.71 19 4.42 19 0 19 C0 12.73 0 6.46 0 0 Z " fill="#B2E5F2" transform="translate(96,115)"/>
<path d="M0 0 C0.33 0 0.66 0 1 0 C1 8.91 1 17.82 1 27 C6.28000918 26.34650411 6.28000918 26.34650411 11.55883789 25.68359375 C16.07707973 25.1382234 20.44936575 24.90330658 25 25 C25 25.33 25 25.66 25 26 C23.50146484 26.19916016 23.50146484 26.19916016 21.97265625 26.40234375 C20.68230469 26.57894531 19.39195313 26.75554687 18.0625 26.9375 C16.77472656 27.11152344 15.48695312 27.28554687 14.16015625 27.46484375 C11.14533687 27.66162423 11.14533687 27.66162423 10 29 C8.50261876 29.0979057 7.00057108 29.12974864 5.5 29.125 C4.6853125 29.12757813 3.870625 29.13015625 3.03125 29.1328125 C1 29 1 29 0 28 C-0.08767112 25.92737924 -0.10695873 23.85179706 -0.09765625 21.77734375 C-0.09443359 20.51728516 -0.09121094 19.25722656 -0.08789062 17.95898438 C-0.07953403 16.61848891 -0.07106907 15.27799412 -0.0625 13.9375 C-0.0574866 12.59310058 -0.05292342 11.2486994 -0.04882812 9.90429688 C-0.03699488 6.60282059 -0.02050971 3.30143197 0 0 Z " fill="#43B7E6" transform="translate(91,154)"/>
<path d="M0 0 C2 1 2 1 4 3 C4.36933645 5.75372909 4.18336678 8.20365661 4 11 C1.69 11 -0.62 11 -3 11 C-2.8864371 9.35333797 -2.75882619 7.70763918 -2.625 6.0625 C-2.55539063 5.14597656 -2.48578125 4.22945313 -2.4140625 3.28515625 C-2.27742187 2.53105469 -2.14078125 1.77695313 -2 1 C-1.34 0.67 -0.68 0.34 0 0 Z " fill="#25638B" transform="translate(163,103)"/>
<path d="M0 0 C-0.33 1.32 -0.66 2.64 -1 4 C-1.66 4 -2.32 4 -3 4 C-2.67 5.65 -2.34 7.3 -2 9 C-7.625 12 -7.625 12 -11 12 C-11 11.34 -11 10.68 -11 10 C-12.65 9.67 -14.3 9.34 -16 9 C-16 8.67 -16 8.34 -16 8 C-12.7 8 -9.4 8 -6 8 C-5.67 6.35 -5.34 4.7 -5 3 C-6.32 2.67 -7.64 2.34 -9 2 C-5.86501708 0.14223235 -3.62528568 -0.20140476 0 0 Z " fill="#BDECF7" transform="translate(147,91)"/>
<path d="M0 0 C4.29 0 8.58 0 13 0 C11.125 9.75 11.125 9.75 10 12 C9.01 11.67 8.02 11.34 7 11 C7.66 9.02 8.32 7.04 9 5 C6.03 4.67 3.06 4.34 0 4 C0 2.66666667 0 1.33333333 0 0 Z " fill="#A7DAE9" transform="translate(150,132)"/>
<path d="M0 0 C1.98 0 3.96 0 6 0 C6 0.66 6 1.32 6 2 C4.68 2 3.36 2 2 2 C2 2.66 2 3.32 2 4 C3.32 4 4.64 4 6 4 C6 9.28 6 14.56 6 20 C4.68 19.67 3.36 19.34 2 19 C2 18.01 2 17.02 2 16 C2.99 16 3.98 16 5 16 C4.34 13.03 3.68 10.06 3 7 C2.01 7 1.02 7 0 7 C0 4.69 0 2.38 0 0 Z " fill="#205D81" transform="translate(109,157)"/>
<path d="M0 0 C0.33 0 0.66 0 1 0 C1.07347656 1.15628906 1.07347656 1.15628906 1.1484375 2.3359375 C1.22320312 3.33882813 1.29796875 4.34171875 1.375 5.375 C1.44460937 6.37273437 1.51421875 7.37046875 1.5859375 8.3984375 C1.76363964 11.15508879 1.76363964 11.15508879 4 13 C4 14.32 4 15.64 4 17 C2.35 17 0.7 17 -1 17 C-1.33 17.66 -1.66 18.32 -2 19 C-2.66 19 -3.32 19 -4 19 C-2.125 12.125 -2.125 12.125 -1 11 C-0.76636119 9.15108054 -0.58696365 7.29511969 -0.4375 5.4375 C-0.35371094 4.42558594 -0.26992187 3.41367188 -0.18359375 2.37109375 C-0.12300781 1.58863281 -0.06242188 0.80617188 0 0 Z " fill="#D99C4C" transform="translate(129,113)"/>
<path d="M0 0 C1.98 0.99 1.98 0.99 4 2 C3.01 2.33 2.02 2.66 1 3 C1 14.22 1 25.44 1 37 C2.32 37.33 3.64 37.66 5 38 C3.35 38 1.7 38 0 38 C0 25.46 0 12.92 0 0 Z " fill="#33A3CD" transform="translate(131,61)"/>
<path d="M0 0 C1.65 0 3.3 0 5 0 C5 0.66 5 1.32 5 2 C4.01 2 3.02 2 2 2 C2 2.99 2 3.98 2 5 C2.61488281 4.95359375 3.22976562 4.9071875 3.86328125 4.859375 C10.48826757 4.56352234 10.48826757 4.56352234 13.125 6.8125 C14 9 14 9 13 12 C12.690625 11.360625 12.38125 10.72125 12.0625 10.0625 C9.22430881 7.22430881 6.85543838 7.3963436 2.9609375 7.17578125 C1 7 1 7 0 6 C-0.04080783 4.00041636 -0.04254356 1.99954746 0 0 Z " fill="#1FA6D8" transform="translate(155,94)"/>
<path d="M0 0 C2.97 0.33 5.94 0.66 9 1 C9 2.98 9 4.96 9 7 C6.69 6.67 4.38 6.34 2 6 C2 6.66 2 7.32 2 8 C1.34 7.67 0.68 7.34 0 7 C0.99 5.02 1.98 3.04 3 1 C2.01 0.67 1.02 0.34 0 0 Z " fill="#B0B0B0" transform="translate(151,267)"/>
<path d="M0 0 C0 0.66 0 1.32 0 2 C-0.66 2 -1.32 2 -2 2 C-2 7.61 -2 13.22 -2 19 C-2.33 19 -2.66 19 -3 19 C-3 13.39 -3 7.78 -3 2 C-6.465 3.485 -6.465 3.485 -10 5 C-10.66 4.34 -11.32 3.68 -12 3 C-7.89542386 0.01485372 -5.02254631 -0.2954439 0 0 Z " fill="#A8E8F8" transform="translate(130,171)"/>
<path d="M0 0 C0.99 0.495 0.99 0.495 2 1 C2 2.65 2 4.3 2 6 C5.3 6 8.6 6 12 6 C12 5.34 12 4.68 12 4 C13.98 3.67 15.96 3.34 18 3 C17.67 3.99 17.34 4.98 17 6 C16.34 6 15.68 6 15 6 C14.67 8.97 14.34 11.94 14 15 C13.67 15 13.34 15 13 15 C13.33 12.36 13.66 9.72 14 7 C9.71 7 5.42 7 1 7 C0.67 4.69 0.34 2.38 0 0 Z " fill="#23A6D8" transform="translate(149,125)"/>
<path d="M0 0 C0.99 0.33 1.98 0.66 3 1 C3.66 6.61 4.32 12.22 5 18 C2.77077045 15.77077045 2.11871047 13.90864722 1 11 C0.67 10.67 0.34 10.34 0 10 C-0.07205511 8.31391034 -0.08386068 6.62499341 -0.0625 4.9375 C-0.05347656 4.01839844 -0.04445312 3.09929687 -0.03515625 2.15234375 C-0.02355469 1.44207031 -0.01195312 0.73179688 0 0 Z " fill="#FCEECF" transform="translate(130,114)"/>
<path d="M0 0 C1.33841672 0.31229724 2.67139075 0.64830932 4 1 C6.18703385 0.62092718 6.18703385 0.62092718 8 0 C7.01 0.495 7.01 0.495 6 1 C6 2.32 6 3.64 6 5 C6.66 5.33 7.32 5.66 8 6 C7.443125 5.814375 6.88625 5.62875 6.3125 5.4375 C3.600867 4.92448835 1.65628961 5.3359276 -1 6 C-1.625 4.125 -1.625 4.125 -2 2 C-1.34 1.34 -0.68 0.68 0 0 Z " fill="#858585" transform="translate(103,269)"/>
<path d="M0 0 C0.66 0.33 1.32 0.66 2 1 C3.70363822 1.22622081 5.41328701 1.40888473 7.125 1.5625 C8.03507812 1.64628906 8.94515625 1.73007813 9.8828125 1.81640625 C10.58148438 1.87699219 11.28015625 1.93757813 12 2 C12 2.66 12 3.32 12 4 C11.22914063 3.98839844 10.45828125 3.97679688 9.6640625 3.96484375 C8.66117188 3.95582031 7.65828125 3.94679688 6.625 3.9375 C5.12839844 3.92009766 5.12839844 3.92009766 3.6015625 3.90234375 C1.01567547 3.81993398 1.01567547 3.81993398 -1 5 C-1 4.34 -1 3.68 -1 3 C-4.3 3.33 -7.6 3.66 -11 4 C-11 3.34 -11 2.68 -11 2 C-10.28972656 1.93941406 -9.57945312 1.87882812 -8.84765625 1.81640625 C-7.46900391 1.69072266 -7.46900391 1.69072266 -6.0625 1.5625 C-5.14597656 1.48128906 -4.22945312 1.40007812 -3.28515625 1.31640625 C-1.03840268 1.23955024 -1.03840268 1.23955024 0 0 Z " fill="#25587A" transform="translate(148,88)"/>
<path d="M0 0 C1.63001953 0.01353516 1.63001953 0.01353516 3.29296875 0.02734375 C4.12441406 0.03894531 4.95585938 0.05054687 5.8125 0.0625 C6.1425 0.7225 6.4725 1.3825 6.8125 2.0625 C2.1925 2.0625 -2.4275 2.0625 -7.1875 2.0625 C-7.1875 2.7225 -7.1875 3.3825 -7.1875 4.0625 C-9.1675 4.3925 -11.1475 4.7225 -13.1875 5.0625 C-8.9179711 0.49852084 -6.16422473 -0.06628199 0 0 Z " fill="#2BA8D6" transform="translate(94.1875,98.9375)"/>
<path d="M0 0 C2.46800047 1.15173355 4.04783565 2.04783565 6 4 C-3.24 4 -12.48 4 -22 4 C-22 3.67 -22 3.34 -22 3 C-14.74 3 -7.48 3 0 3 C0 2.01 0 1.02 0 0 Z " fill="#1B9FD2" transform="translate(210,119)"/>
<path d="M0 0 C1.37478516 0.01740234 1.37478516 0.01740234 2.77734375 0.03515625 C3.69644531 0.04417969 4.61554688 0.05320312 5.5625 0.0625 C6.27277344 0.07410156 6.98304688 0.08570312 7.71484375 0.09765625 C7.71484375 1.08765625 7.71484375 2.07765625 7.71484375 3.09765625 C4.74484375 3.09765625 1.77484375 3.09765625 -1.28515625 3.09765625 C-1.28515625 3.75765625 -1.28515625 4.41765625 -1.28515625 5.09765625 C-0.29515625 5.42765625 0.69484375 5.75765625 1.71484375 6.09765625 C-0.16015625 6.72265625 -0.16015625 6.72265625 -2.28515625 7.09765625 C-2.94515625 6.43765625 -3.60515625 5.77765625 -4.28515625 5.09765625 C-3.53567763 0.15109733 -3.53567763 0.15109733 0 0 Z " fill="#9BD6EB" transform="translate(138.28515625,86.90234375)"/>
<path d="M0 0 C0.99 0.33 1.98 0.66 3 1 C2.43410156 1.4125 1.86820313 1.825 1.28515625 2.25 C-3.11683383 5.5706548 -3.11683383 5.5706548 -5.75390625 10.24609375 C-6.0662613 12.66001093 -6.0662613 12.66001093 -6 16 C-6.33 16 -6.66 16 -7 16 C-7.89683103 12.91013684 -8.38553673 10.21111516 -8 7 C-5.80010112 4.00450662 -3.27775764 1.76210279 0 0 Z " fill="#BBEFF8" transform="translate(156,144)"/>
<path d="M0 0 C0.66 0.66 1.32 1.32 2 2 C0.37982158 3.33918806 -1.24629343 4.6711969 -2.875 6 C-4.23238281 7.11375 -4.23238281 7.11375 -5.6171875 8.25 C-8 10 -8 10 -10 10 C-8.5741914 6.54804233 -6.90253666 4.8985744 -3.875 2.75 C-3.15054688 2.22921875 -2.42609375 1.7084375 -1.6796875 1.171875 C-1.12539063 0.78515625 -0.57109375 0.3984375 0 0 Z " fill="#245C7C" transform="translate(57,107)"/>
<path d="M0 0 C1.32 1.32 2.64 2.64 4 4 C3.34 5.32 2.68 6.64 2 8 C0.68 7.67 -0.64 7.34 -2 7 C-1.125 1.125 -1.125 1.125 0 0 Z " fill="#256487" transform="translate(163,120)"/>
<path d="M0 0 C2.64 0.66 5.28 1.32 8 2 C8 3.65 8 5.3 8 7 C6.35 6.67 4.7 6.34 3 6 C3 5.34 3 4.68 3 4 C2.01 4 1.02 4 0 4 C0 2.68 0 1.36 0 0 Z " fill="#08A6DF" transform="translate(133,93)"/>
<path d="M0 0 C0.375 2.25 0.375 2.25 0 5 C-3 7.3125 -3 7.3125 -6 9 C-6.33 7.35 -6.66 5.7 -7 4 C-2.25 0 -2.25 0 0 0 Z " fill="#DEF1F7" transform="translate(114,67)"/>
<path d="M0 0 C0.66 0.66 1.32 1.32 2 2 C1.01 2.33 0.02 2.66 -1 3 C-0.67 4.32 -0.34 5.64 0 7 C-2.64 7 -5.28 7 -8 7 C-5.42215154 4.35247996 -3.08351902 2.05567935 0 0 Z " fill="#275C7E" transform="translate(35,124)"/>
<path d="M0 0 C2.36120297 0.25392418 4.7150539 0.57798123 7.0625 0.9375 C8.35285156 1.13214844 9.64320313 1.32679687 10.97265625 1.52734375 C11.97167969 1.68332031 12.97070312 1.83929688 14 2 C14 2.33 14 2.66 14 3 C13.08476562 2.98839844 12.16953125 2.97679688 11.2265625 2.96484375 C10.03804687 2.95582031 8.84953125 2.94679688 7.625 2.9375 C6.44164062 2.92589844 5.25828125 2.91429688 4.0390625 2.90234375 C1.08078479 2.78533407 1.08078479 2.78533407 -1 4 C-2.54613014 3.91348369 -4.08909387 3.75997364 -5.625 3.5625 C-6.85089844 3.40974609 -6.85089844 3.40974609 -8.1015625 3.25390625 C-8.72804687 3.17011719 -9.35453125 3.08632812 -10 3 C-10 2.67 -10 2.34 -10 2 C-9.04287109 1.90912109 -9.04287109 1.90912109 -8.06640625 1.81640625 C-6.82697266 1.69072266 -6.82697266 1.69072266 -5.5625 1.5625 C-4.73878906 1.48128906 -3.91507813 1.40007812 -3.06640625 1.31640625 C-1.01337975 1.21069185 -1.01337975 1.21069185 0 0 Z " fill="#D4FBFE" transform="translate(147,86)"/>
<path d="M0 0 C0.33 0 0.66 0 1 0 C1 5.28 1 10.56 1 16 C1.66 16 2.32 16 3 16 C3 16.99 3 17.98 3 19 C3.99 19.33 4.98 19.66 6 20 C4.02 20 2.04 20 0 20 C0 13.4 0 6.8 0 0 Z " fill="#135379" transform="translate(108,157)"/>
<path d="M0 0 C0.33 0.99 0.66 1.98 1 3 C5.29 3.33 9.58 3.66 14 4 C14 4.33 14 4.66 14 5 C9.71 5 5.42 5 1 5 C1 5.66 1 6.32 1 7 C0.34 7 -0.32 7 -1 7 C-0.67 4.69 -0.34 2.38 0 0 Z " fill="#BCDFEC" transform="translate(93,155)"/>
<path d="M0 0 C2.64 0 5.28 0 8 0 C8.33 0.66 8.66 1.32 9 2 C0.57142857 5.42857143 0.57142857 5.42857143 -4 5 C-2.68 4.67 -1.36 4.34 0 4 C0 2.68 0 1.36 0 0 Z " fill="#A8DAEB" transform="translate(135,107)"/>
<path d="M0 0 C6.875 3.75 6.875 3.75 8 6 C7.21625 5.814375 6.4325 5.62875 5.625 5.4375 C3.02910225 4.74037734 3.02910225 4.74037734 1 6 C-0.87862875 5.91255632 -2.75455181 5.75824458 -4.625 5.5625 C-5.62789062 5.46066406 -6.63078125 5.35882813 -7.6640625 5.25390625 C-8.43492187 5.17011719 -9.20578125 5.08632812 -10 5 C-10 4.67 -10 4.34 -10 4 C-5.545 3.505 -5.545 3.505 -1 3 C-0.67 2.01 -0.34 1.02 0 0 Z " fill="#32B2E0" transform="translate(161,83)"/>
<path d="M0 0 C2.97 0.495 2.97 0.495 6 1 C6 2.98 6 4.96 6 7 C5.01 6.34 4.02 5.68 3 5 C2.67 5.33 2.34 5.66 2 6 C2.66 6.66 3.32 7.32 4 8 C2.35 8 0.7 8 -1 8 C-0.690625 7.401875 -0.38125 6.80375 -0.0625 6.1875 C1.10209704 3.91043228 1.10209704 3.91043228 2 1 C1.34 0.67 0.68 0.34 0 0 Z " fill="#686868" transform="translate(176,267)"/>
<path d="M0 0 C0.66 0 1.32 0 2 0 C2.33 1.32 2.66 2.64 3 4 C0.525 5.485 0.525 5.485 -2 7 C-2 6.34 -2 5.68 -2 5 C-3.32 5.33 -4.64 5.66 -6 6 C-4 4 -2 2 0 0 Z " fill="#DCF1F7" transform="translate(50,115)"/>
<path d="M0 0 C7.71428571 4 7.71428571 4 9 8 C4.62140745 7.49477778 2.18348776 4.82172778 -1 2 C-0.67 1.34 -0.34 0.68 0 0 Z " fill="#255C7E" transform="translate(166,78)"/>
<path d="M0 0 C3.96 0 7.92 0 12 0 C12 0.66 12 1.32 12 2 C6.06 2.495 6.06 2.495 0 3 C0 2.01 0 1.02 0 0 Z " fill="#1E5B7F" transform="translate(94,172)"/>
<path d="M0 0 C0.99 0.33 1.98 0.66 3 1 C2.67 4.3 2.34 7.6 2 11 C0.68 11.33 -0.64 11.66 -2 12 C-2 11.34 -2 10.68 -2 10 C-1.34 10 -0.68 10 0 10 C0 6.7 0 3.4 0 0 Z " fill="#D9FAFD" transform="translate(156,159)"/>
<path d="M0 0 C2.64 0 5.28 0 8 0 C7.01 0.495 7.01 0.495 6 1 C6 2.65 6 4.3 6 6 C4.02 5.01 2.04 4.02 0 3 C0 2.01 0 1.02 0 0 Z " fill="#12577F" transform="translate(155,103)"/>
<path d="M0 0 C2.0625 0.4375 2.0625 0.4375 4 1 C3.6875 3.375 3.6875 3.375 3 6 C2.01 6.66 1.02 7.32 0 8 C-0.38063221 5.6739143 -0.71269945 3.33944736 -1 1 C-0.67 0.67 -0.34 0.34 0 0 Z " fill="#818181" transform="translate(200,267)"/>
<path d="M0 0 C0.33 0.66 0.66 1.32 1 2 C1.99 2 2.98 2 4 2 C4.33 1.34 4.66 0.68 5 0 C5 0.66 5 1.32 5 2 C5.66 2.33 6.32 2.66 7 3 C6.34 3 5.68 3 5 3 C5 4.32 5 5.64 5 7 C5.66 7.33 6.32 7.66 7 8 C6.01 8 5.02 8 4 8 C4 6.35 4 4.7 4 3 C3.01 3 2.02 3 1 3 C1 4.32 1 5.64 1 7 C1.66 7.33 2.32 7.66 3 8 C2.01 8 1.02 8 0 8 C0 5.36 0 2.72 0 0 Z " fill="#4B4B4B" transform="translate(75,267)"/>
<path d="M0 0 C1.65 0 3.3 0 5 0 C5.33 1.65 5.66 3.3 6 5 C4.35 4.67 2.7 4.34 1 4 C0.67 2.68 0.34 1.36 0 0 Z " fill="#0BA6E1" transform="translate(120,154)"/>
<path d="M0 0 C1.65 0 3.3 0 5 0 C5 0.66 5 1.32 5 2 C5.66 2.33 6.32 2.66 7 3 C5.68 3 4.36 3 3 3 C3.33 3.99 3.66 4.98 4 6 C2.68 5.67 1.36 5.34 0 5 C0 3.35 0 1.7 0 0 Z " fill="#E3F7FB" transform="translate(128,108)"/>
<path d="M0 0 C-0.33 1.32 -0.66 2.64 -1 4 C-1.66 4 -2.32 4 -3 4 C-3.33 4.66 -3.66 5.32 -4 6 C-4 5.01 -4 4.02 -4 3 C-5.65 3 -7.3 3 -9 3 C-5.92807025 0.26939578 -4.09590633 -0.34132553 0 0 Z " fill="#D3F0F7" transform="translate(147,91)"/>
<path d="M0 0 C0.66 0.33 1.32 0.66 2 1 C1.67 1.66 1.34 2.32 1 3 C0.34 3 -0.32 3 -1 3 C-1 3.66 -1 4.32 -1 5 C1.31 5 3.62 5 6 5 C6 5.33 6 5.66 6 6 C2.7 6.33 -0.6 6.66 -4 7 C-1.125 1.125 -1.125 1.125 0 0 Z " fill="#12A3DA" transform="translate(80,104)"/>
<path d="M0 0 C2.64 0 5.28 0 8 0 C7.01 0.495 7.01 0.495 6 1 C6 2.65 6 4.3 6 6 C5.01 5.67 4.02 5.34 3 5 C2.67 4.01 2.34 3.02 2 2 C1.34 1.34 0.68 0.68 0 0 Z " fill="#787878" transform="translate(128,269)"/>
<path d="M0 0 C0.75 2.625 0.75 2.625 1 5 C0.525625 4.360625 0.05125 3.72125 -0.4375 3.0625 C-4.05420035 0.15149728 -7.47204894 0.19350218 -12 0 C-12 -0.33 -12 -0.66 -12 -1 C-2.86624204 -2.52229299 -2.86624204 -2.52229299 0 0 Z " fill="#38AFDC" transform="translate(168,101)"/>
<path d="M0 0 C0.66 0 1.32 0 2 0 C2 1.98 2 3.96 2 6 C2.66 6.33 3.32 6.66 4 7 C2.02 7.99 2.02 7.99 0 9 C0 6.03 0 3.06 0 0 Z " fill="#41ADD7" transform="translate(169,160)"/>
<path d="M0 0 C0.66 0.66 1.32 1.32 2 2 C-1 3 -1 3 -4 2 C-4.99 2.33 -5.98 2.66 -7 3 C-7 2.01 -7 1.02 -7 0 C-4.29393021 -1.35303489 -2.8671629 -0.7884698 0 0 Z " fill="#BBEEF9" transform="translate(166,157)"/>
<path d="M0 0 C0.33 0.99 0.66 1.98 1 3 C-0.75 5.0625 -0.75 5.0625 -3 7 C-4.32 6.67 -5.64 6.34 -7 6 C-4.69 4.02 -2.38 2.04 0 0 Z " fill="#18A6DB" transform="translate(158,145)"/>
<path d="M0 0 C0.33 0.99 0.66 1.98 1 3 C-3.75 7 -3.75 7 -6 7 C-4.60667426 3.63279613 -3.0210714 2.0140476 0 0 Z " fill="#21597D" transform="translate(76,92)"/>
<path d="M0 0 C1.32 0 2.64 0 4 0 C4 0.99 4 1.98 4 3 C3.01 3 2.02 3 1 3 C1 3.66 1 4.32 1 5 C1.99 5.33 2.98 5.66 4 6 C2.68 6 1.36 6 0 6 C-1.125 2.25 -1.125 2.25 0 0 Z " fill="#686868" transform="translate(83,269)"/>
<path d="M0 0 C0.66 0.99 1.32 1.98 2 3 C0.4221875 2.690625 0.4221875 2.690625 -1.1875 2.375 C-4.99624887 2.00036896 -6.66835752 2.28369933 -10 4 C-9.67 3.01 -9.34 2.02 -9 1 C-5.73842267 -0.08719244 -3.41589896 -0.29071481 0 0 Z " fill="#22A3D7" transform="translate(166,155)"/>
<path d="M0 0 C1.65 0 3.3 0 5 0 C5 0.99 5 1.98 5 3 C3.68 3 2.36 3 1 3 C1 3.99 1 4.98 1 6 C0.34 6 -0.32 6 -1 6 C-0.67 4.02 -0.34 2.04 0 0 Z " fill="#F6C37D" transform="translate(126,126)"/>
<path d="M0 0 C1.875 0.25 1.875 0.25 4 1 C5.25 3.0625 5.25 3.0625 6 5 C5.01 5.495 5.01 5.495 4 6 C3.01 5.01 2.02 4.02 1 3 C0.34 3.66 -0.32 4.32 -1 5 C-1 2 -1 2 0 0 Z " fill="#B1EAF6" transform="translate(162,118)"/>
<path d="M0 0 C0.598125 0.20625 1.19625 0.4125 1.8125 0.625 C1.4825 2.275 1.1525 3.925 0.8125 5.625 C-1.1675 4.305 -3.1475 2.985 -5.1875 1.625 C-2.1875 -0.375 -2.1875 -0.375 0 0 Z " fill="#D6F6FC" transform="translate(139.1875,61.375)"/>
<path d="M0 0 C0.33 0 0.66 0 1 0 C1 2.97 1 5.94 1 9 C-0.32 8.67 -1.64 8.34 -3 8 C-3 7.01 -3 6.02 -3 5 C-2.01 5 -1.02 5 0 5 C0 3.35 0 1.7 0 0 Z " fill="#5086A2" transform="translate(114,168)"/>
<path d="M0 0 C0 1.65 0 3.3 0 5 C-2.31 4.34 -4.62 3.68 -7 3 C-7 2.67 -7 2.34 -7 2 C-1.125 0 -1.125 0 0 0 Z " fill="#33A7D5" transform="translate(138,110)"/>
<path d="M0 0 C4.875 2.625 4.875 2.625 6 6 C3.5625 5.25 3.5625 5.25 1 4 C0.1875 1.875 0.1875 1.875 0 0 Z " fill="#215B7A" transform="translate(185,92)"/>
<path d="M0 0 C0.66 0 1.32 0 2 0 C1.34 1.32 0.68 2.64 0 4 C-2.64 4 -5.28 4 -8 4 C-8 3.67 -8 3.34 -8 3 C-6.865625 2.690625 -5.73125 2.38125 -4.5625 2.0625 C-1.21224901 1.37075469 -1.21224901 1.37075469 0 0 Z " fill="#C7FAFE" transform="translate(118,175)"/>
<path d="M0 0 C0.598125 0.350625 1.19625 0.70125 1.8125 1.0625 C0.4925 2.0525 -0.8275 3.0425 -2.1875 4.0625 C-2.1875 3.0725 -2.1875 2.0825 -2.1875 1.0625 C-3.5075 1.3925 -4.8275 1.7225 -6.1875 2.0625 C-4.66896708 -0.97456585 -3.05066334 -1.30742714 0 0 Z " fill="#2C688B" transform="translate(151.1875,145.9375)"/>
<path d="M0 0 C0.33 0.66 0.66 1.32 1 2 C1.99 2.33 2.98 2.66 4 3 C2.625 4.5 2.625 4.5 1 6 C0.34 6 -0.32 6 -1 6 C-1.042721 4.33388095 -1.04063832 2.66617115 -1 1 C-0.67 0.67 -0.34 0.34 0 0 Z " fill="#1D5C80" transform="translate(105,67)"/>
</svg>
